<svg width="17" height="16" viewBox="0 0 17 16" fill="none" xmlns="http://www.w3.org/2000/svg">
<path d="M9.84851 7.99992L5.09934 3.25058C4.89489 3.04625 4.79389 2.80036 4.79634 2.51292C4.79878 2.22547 4.90217 1.97958 5.10651 1.77525C5.31084 1.57092 5.55828 1.46875 5.84884 1.46875C6.13951 1.46875 6.38701 1.57092 6.59134 1.77525L11.5667 6.74842C11.744 6.92575 11.8754 7.12286 11.9608 7.33975C12.0464 7.55664 12.0892 7.77669 12.0892 7.99992C12.0892 8.22314 12.0464 8.44319 11.9608 8.66008C11.8754 8.87697 11.744 9.07408 11.5667 9.25142L6.58401 14.2339C6.37967 14.4384 6.13501 14.5378 5.85001 14.5323C5.56501 14.5267 5.32034 14.4217 5.11601 14.2172C4.91156 14.0129 4.80934 13.7655 4.80934 13.4749C4.80934 13.1844 4.91156 12.9369 5.11601 12.7326L9.84851 7.99992Z" fill="#313131"/>
</svg>
