<svg width="16" height="16" viewBox="0 0 16 16" fill="none" xmlns="http://www.w3.org/2000/svg">
<path d="M6.6514 7.99992L11.4006 3.25058C11.605 3.04625 11.706 2.80036 11.7036 2.51292C11.7011 2.22547 11.5977 1.97958 11.3934 1.77525C11.1891 1.57092 10.9416 1.46875 10.6511 1.46875C10.3604 1.46875 10.1129 1.57092 9.90857 1.77525L4.93324 6.74842C4.7559 6.92575 4.62451 7.12286 4.53907 7.33975C4.45351 7.55664 4.41074 7.77669 4.41074 7.99992C4.41074 8.22314 4.45351 8.44319 4.53907 8.66008C4.62451 8.87697 4.7559 9.07408 4.93324 9.25142L9.9159 14.2339C10.1202 14.4384 10.3649 14.5378 10.6499 14.5323C10.9349 14.5267 11.1796 14.4217 11.3839 14.2172C11.5883 14.0129 11.6906 13.7655 11.6906 13.4749C11.6906 13.1844 11.5883 12.9369 11.3839 12.7326L6.6514 7.99992Z" fill="#6B6B6B"/>
</svg>
