<svg width="12" height="20" viewBox="0 0 12 20" fill="none" xmlns="http://www.w3.org/2000/svg">
<path d="M8.02265 9.99988L0.898901 2.87587C0.592234 2.56937 0.440734 2.20054 0.444401 1.76938C0.448068 1.33821 0.603151 0.969375 0.909651 0.662875C1.21615 0.356375 1.58732 0.203125 2.02315 0.203125C2.45915 0.203125 2.8304 0.356375 3.1369 0.662875L10.5999 8.12262C10.8659 8.38862 11.063 8.68429 11.1912 9.00963C11.3195 9.33496 11.3837 9.66504 11.3837 9.99988C11.3837 10.3347 11.3195 10.6648 11.1912 10.9901C11.063 11.3155 10.8659 11.6111 10.5999 11.8771L3.1259 19.3509C2.8194 19.6575 2.4524 19.8067 2.0249 19.7984C1.5974 19.79 1.2304 19.6325 0.923901 19.3259C0.617234 19.0194 0.463901 18.6482 0.463901 18.2124C0.463901 17.7765 0.617234 17.4054 0.923901 17.0989L8.02265 9.99988Z" fill="#6B6B6B"/>
</svg>
