<svg width="12" height="13" viewBox="0 0 12 13" fill="none" xmlns="http://www.w3.org/2000/svg">
<path d="M0.146447 1.35355C-0.0488156 1.15829 -0.0488156 0.841709 0.146447 0.646447C0.341709 0.451184 0.658292 0.451184 0.853554 0.646447L6 5.79289L11.1464 0.646447C11.3417 0.451184 11.6583 0.451184 11.8536 0.646447C12.0488 0.841709 12.0488 1.15829 11.8536 1.35355L6.70711 6.5L11.8536 11.6464C12.0488 11.8417 12.0488 12.1583 11.8536 12.3536C11.6583 12.5488 11.3417 12.5488 11.1464 12.3536L6 7.20711L0.853554 12.3536C0.658292 12.5488 0.341709 12.5488 0.146447 12.3536C-0.048815 12.1583 -0.048815 11.8417 0.146447 11.6464L5.29289 6.5L0.146447 1.35355Z" fill="#313131"/>
</svg>
