<svg width="82" height="90" viewBox="0 0 82 90" fill="none" xmlns="http://www.w3.org/2000/svg">
<path d="M23.2854 37.4414H13.5234C12.6944 37.4414 12.0234 38.1124 12.0234 38.9414V48.7034C12.0234 49.5314 12.6944 50.2034 13.5234 50.2034H23.2854C24.1144 50.2034 24.7854 49.5314 24.7854 48.7034V38.9414C24.7854 38.1134 24.1144 37.4414 23.2854 37.4414ZM21.7854 47.2034H15.0234V40.4414H21.7854V47.2034Z" fill="black"/>
<path d="M46.055 37.4414H36.293C35.464 37.4414 34.793 38.1124 34.793 38.9414V48.7034C34.793 49.5314 35.464 50.2034 36.293 50.2034H46.055C46.883 50.2034 47.555 49.5314 47.555 48.7034V38.9414C47.555 38.1134 46.883 37.4414 46.055 37.4414ZM44.555 47.2034H37.793V40.4414H44.555V47.2034Z" fill="black"/>
<path d="M68.1214 37.4414H58.3594C57.5314 37.4414 56.8594 38.1124 56.8594 38.9414V48.7034C56.8594 49.5314 57.5314 50.2034 58.3594 50.2034H68.1214C68.9494 50.2034 69.6214 49.5314 69.6214 48.7034V38.9414C69.6214 38.1134 68.9494 37.4414 68.1214 37.4414ZM66.6214 47.2034H59.8594V40.4414H66.6214V47.2034Z" fill="black"/>
<path d="M23.2854 59.6777H13.5234C12.6944 59.6777 12.0234 60.3497 12.0234 61.1777V70.9397C12.0234 71.7677 12.6944 72.4397 13.5234 72.4397H23.2854C24.1144 72.4397 24.7854 71.7677 24.7854 70.9397V61.1777C24.7854 60.3497 24.1144 59.6777 23.2854 59.6777ZM21.7854 69.4397H15.0234V62.6777H21.7854V69.4397Z" fill="black"/>
<path d="M46.055 59.6777H36.293C35.464 59.6777 34.793 60.3497 34.793 61.1777V70.9397C34.793 71.7677 35.464 72.4397 36.293 72.4397H46.055C46.883 72.4397 47.555 71.7677 47.555 70.9397V61.1777C47.555 60.3497 46.883 59.6777 46.055 59.6777ZM44.555 69.4397H37.793V62.6777H44.555V69.4397Z" fill="black"/>
<path d="M68.1214 59.6777H58.3594C57.5314 59.6777 56.8594 60.3497 56.8594 61.1777V70.9397C56.8594 71.7677 57.5314 72.4397 58.3594 72.4397H68.1214C68.9494 72.4397 69.6214 71.7677 69.6214 70.9397V61.1777C69.6214 60.3497 68.9494 59.6777 68.1214 59.6777ZM66.6214 69.4397H59.8594V62.6777H66.6214V69.4397Z" fill="black"/>
<path d="M80.0009 8.39461H70.0939C70.0809 8.39461 70.0699 8.39761 70.0569 8.39861V6.40061C70.0569 3.13261 67.3989 0.474609 64.1309 0.474609C60.8629 0.474609 58.2049 3.13361 58.2049 6.40061V8.39461H47.0419V6.40061C47.0419 3.13261 44.3839 0.474609 41.1159 0.474609C37.8479 0.474609 35.1899 3.13361 35.1899 6.40061V8.39461H24.0259V6.40061C24.0259 3.13261 21.3679 0.474609 18.0999 0.474609C14.8319 0.474609 12.1739 3.13361 12.1739 6.40061V8.39561C12.1689 8.39561 12.1639 8.39461 12.1589 8.39461H2.25391C1.42491 8.39461 0.753906 9.06561 0.753906 9.89461V87.6406C0.753906 88.4686 1.42491 89.1406 2.25391 89.1406H80.0009C80.8289 89.1406 81.5009 88.4686 81.5009 87.6406V9.89461C81.5009 9.06561 80.8289 8.39461 80.0009 8.39461ZM61.2049 6.40061C61.2049 4.78661 62.5169 3.47461 64.1309 3.47461C65.7449 3.47461 67.0569 4.78661 67.0569 6.40061V14.6776C67.0569 16.2906 65.7449 17.6036 64.1309 17.6036C62.5169 17.6036 61.2049 16.2916 61.2049 14.6776V6.40061ZM41.1159 3.47461C42.7289 3.47461 44.0419 4.78661 44.0419 6.40061V14.6776C44.0419 16.2906 42.7299 17.6036 41.1159 17.6036C39.5019 17.6036 38.1899 16.2916 38.1899 14.6776V10.0346C38.1939 9.98761 38.2039 9.94261 38.2039 9.89361C38.2039 9.84461 38.1939 9.79961 38.1899 9.75261V6.40061C38.1899 4.78661 39.5019 3.47461 41.1159 3.47461ZM15.1739 6.40061C15.1739 4.78661 16.4859 3.47461 18.0999 3.47461C19.7129 3.47461 21.0259 4.78661 21.0259 6.40061V14.6776C21.0259 16.2906 19.7139 17.6036 18.0999 17.6036C16.4859 17.6036 15.1739 16.2916 15.1739 14.6776V6.40061ZM78.5009 86.1406H3.75391V11.3946H12.1589C12.1639 11.3946 12.1689 11.3936 12.1739 11.3936V14.6786C12.1739 17.9466 14.8329 20.6046 18.0999 20.6046C21.3669 20.6046 24.0259 17.9466 24.0259 14.6786V11.3956H35.1899V14.6786C35.1899 17.9466 37.8489 20.6046 41.1159 20.6046C44.3829 20.6046 47.0419 17.9466 47.0419 14.6786V11.3956H58.2049V14.6786C58.2049 17.9466 60.8629 20.6046 64.1309 20.6046C67.3989 20.6046 70.0569 17.9466 70.0569 14.6786V11.3906C70.0699 11.3906 70.0809 11.3946 70.0939 11.3946H78.5009V86.1406Z" fill="black"/>
</svg>
