<svg width="17" height="16" viewBox="0 0 17 16" fill="none" xmlns="http://www.w3.org/2000/svg">
<g clip-path="url(#clip0_4155_3430)">
<path d="M8.5 15C6.64348 15 4.86301 14.2625 3.55025 12.9497C2.2375 11.637 1.5 9.85652 1.5 8C1.5 6.14348 2.2375 4.36301 3.55025 3.05025C4.86301 1.7375 6.64348 1 8.5 1C10.3565 1 12.137 1.7375 13.4497 3.05025C14.7625 4.36301 15.5 6.14348 15.5 8C15.5 9.85652 14.7625 11.637 13.4497 12.9497C12.137 14.2625 10.3565 15 8.5 15ZM8.5 16C10.6217 16 12.6566 15.1571 14.1569 13.6569C15.6571 12.1566 16.5 10.1217 16.5 8C16.5 5.87827 15.6571 3.84344 14.1569 2.34315C12.6566 0.842855 10.6217 0 8.5 0C6.37827 0 4.34344 0.842855 2.84315 2.34315C1.34285 3.84344 0.5 5.87827 0.5 8C0.5 10.1217 1.34285 12.1566 2.84315 13.6569C4.34344 15.1571 6.37827 16 8.5 16Z" fill="#6B6B6B"/>
<path d="M4.7849 9.567C4.89974 9.5007 5.03621 9.48273 5.1643 9.51705C5.29238 9.55137 5.40159 9.63516 5.4679 9.75C5.77501 10.2823 6.21695 10.7244 6.74923 11.0316C7.2815 11.3388 7.88532 11.5004 8.4999 11.5C9.11447 11.5004 9.71829 11.3388 10.2506 11.0316C10.7828 10.7244 11.2248 10.2823 11.5319 9.75C11.5645 9.69268 11.6081 9.64237 11.6602 9.60197C11.7123 9.56156 11.7719 9.53187 11.8356 9.51459C11.8992 9.49732 11.9656 9.4928 12.031 9.5013C12.0964 9.5098 12.1595 9.53115 12.2166 9.56412C12.2737 9.59709 12.3237 9.64103 12.3637 9.69341C12.4038 9.74579 12.4331 9.80558 12.4499 9.86933C12.4668 9.93308 12.4709 9.99953 12.4619 10.0649C12.453 10.1302 12.4312 10.1931 12.3979 10.25C12.003 10.9344 11.4348 11.5026 10.7506 11.8976C10.0663 12.2926 9.29 12.5004 8.4999 12.5C7.70979 12.5004 6.93353 12.2926 6.24924 11.8976C5.56495 11.5026 4.99678 10.9344 4.6019 10.25C4.5356 10.1352 4.51763 9.99869 4.55195 9.8706C4.58627 9.74251 4.67006 9.63331 4.7849 9.567ZM7.4999 6.5C7.4999 7.328 7.0519 8 6.4999 8C5.9479 8 5.4999 7.328 5.4999 6.5C5.4999 5.672 5.9479 5 6.4999 5C7.0519 5 7.4999 5.672 7.4999 6.5ZM11.4999 6.5C11.4999 7.328 11.0519 8 10.4999 8C9.9479 8 9.4999 7.328 9.4999 6.5C9.4999 5.672 9.9479 5 10.4999 5C11.0519 5 11.4999 5.672 11.4999 6.5Z" fill="#6B6B6B"/>
</g>
<defs>
<clipPath id="clip0_4155_3430">
<rect width="16" height="16" fill="white" transform="translate(0.5)"/>
</clipPath>
</defs>
</svg>
