<svg width="20" height="12" viewBox="0 0 20 12" fill="none" xmlns="http://www.w3.org/2000/svg">
<path d="M10.0001 8.52265L17.1241 1.3989C17.4306 1.09223 17.7995 0.940734 18.2306 0.944401C18.6618 0.948068 19.0306 1.10315 19.3371 1.40965C19.6436 1.71615 19.7969 2.08732 19.7969 2.52315C19.7969 2.95915 19.6436 3.3304 19.3371 3.6369L11.8774 11.0999C11.6114 11.3659 11.3157 11.563 10.9904 11.6912C10.665 11.8195 10.335 11.8837 10.0001 11.8837C9.66529 11.8837 9.33521 11.8195 9.00988 11.6912C8.68454 11.563 8.38888 11.3659 8.12288 11.0999L0.649126 3.6259C0.342459 3.3194 0.193291 2.9524 0.201624 2.5249C0.209959 2.0974 0.367458 1.7304 0.674126 1.4239C0.980625 1.11723 1.35179 0.963901 1.78762 0.963901C2.22346 0.963901 2.59462 1.11723 2.90112 1.4239L10.0001 8.52265Z" fill="#6B6B6B"/>
</svg>
