<svg width="327" height="25" viewBox="0 0 327 25" fill="none" xmlns="http://www.w3.org/2000/svg">
<path d="M24 12C24 18.6274 18.6274 24 12 24C5.37258 24 0 18.6274 0 12C0 5.37258 5.37258 0 12 0C18.6274 0 24 5.37258 24 12ZM18.0455 7.4545C17.6061 7.01517 16.8938 7.01517 16.4545 7.4545C16.4439 7.46511 16.4339 7.47635 16.4247 7.48816L11.2161 14.1251L8.07581 10.9848C7.63647 10.5455 6.92416 10.5455 6.48482 10.9848C6.04548 11.4242 6.04548 12.1365 6.48482 12.5758L10.4545 16.5455C10.8938 16.9848 11.6061 16.9848 12.0455 16.5455C12.0553 16.5357 12.0645 16.5254 12.0731 16.5146L18.0615 9.02921C18.4848 8.58872 18.4794 7.88846 18.0455 7.4545Z" fill="#9FC65F"/>
<path d="M33.8491 2.2H46.4011V19H43.0891V5.368H37.1611V19H33.8491V2.2ZM50.1768 7H59.6808V19H56.5848V9.976H53.2728V13.984C53.2728 17.68 51.5848 19.352 48.2088 19V16.096C48.8488 16.256 49.3368 16.144 49.6728 15.76C50.0088 15.376 50.1768 14.728 50.1768 13.816V7ZM71.6063 8.416V7H74.7023V19H71.6063V17.584C70.6783 18.752 69.3743 19.336 67.6943 19.336C66.0943 19.336 64.7183 18.728 63.5663 17.512C62.4303 16.28 61.8623 14.776 61.8623 13C61.8623 11.24 62.4303 9.744 63.5663 8.512C64.7183 7.28 66.0943 6.664 67.6943 6.664C69.3743 6.664 70.6783 7.248 71.6063 8.416ZM65.8943 15.448C66.5183 16.072 67.3103 16.384 68.2703 16.384C69.2303 16.384 70.0223 16.072 70.6463 15.448C71.2863 14.808 71.6063 13.992 71.6063 13C71.6063 12.008 71.2863 11.2 70.6463 10.576C70.0223 9.936 69.2303 9.616 68.2703 9.616C67.3103 9.616 66.5183 9.936 65.8943 10.576C65.2703 11.2 64.9583 12.008 64.9583 13C64.9583 13.992 65.2703 14.808 65.8943 15.448ZM76.3338 7H86.9658V9.976H83.2218V19H80.1258V9.976H76.3338V7ZM99.8144 14.272H90.7664C91.1664 15.776 92.2944 16.528 94.1504 16.528C95.3344 16.528 96.2304 16.128 96.8384 15.328L99.3344 16.768C98.1504 18.48 96.4064 19.336 94.1024 19.336C92.1184 19.336 90.5264 18.736 89.3264 17.536C88.1264 16.336 87.5264 14.824 87.5264 13C87.5264 11.208 88.1184 9.704 89.3024 8.488C90.4704 7.272 91.9904 6.664 93.8624 6.664C95.6384 6.664 97.0864 7.272 98.2064 8.488C99.3584 9.704 99.9344 11.208 99.9344 13C99.9344 13.336 99.8944 13.76 99.8144 14.272ZM90.7184 11.872H96.8384C96.6624 11.088 96.3024 10.488 95.7584 10.072C95.2304 9.656 94.5984 9.448 93.8624 9.448C93.0304 9.448 92.3424 9.664 91.7984 10.096C91.2544 10.512 90.8944 11.104 90.7184 11.872ZM113.202 12.928L117.546 19H114.066L110.394 13.624V19H107.37V13.624L103.698 19H100.242L104.562 12.928L100.482 7H103.938L107.37 12.208V7H110.394V12.208L113.826 7H117.306L113.202 12.928ZM125.252 7H136.22V19H133.124V9.904H128.348V19H125.252V7ZM146.041 6.664C147.657 6.664 149.033 7.28 150.169 8.512C151.321 9.744 151.897 11.24 151.897 13C151.897 14.792 151.321 16.296 150.169 17.512C149.049 18.728 147.673 19.336 146.041 19.336C144.361 19.336 143.065 18.752 142.153 17.584V23.8H139.057V7H142.153V8.416C143.065 7.248 144.361 6.664 146.041 6.664ZM143.089 15.448C143.713 16.072 144.505 16.384 145.465 16.384C146.425 16.384 147.217 16.072 147.841 15.448C148.481 14.808 148.801 13.992 148.801 13C148.801 12.008 148.481 11.2 147.841 10.576C147.217 9.936 146.425 9.616 145.465 9.616C144.505 9.616 143.713 9.936 143.089 10.576C142.465 11.2 142.153 12.008 142.153 13C142.153 13.992 142.465 14.808 143.089 15.448ZM164.304 17.512C163.088 18.728 161.584 19.336 159.792 19.336C158 19.336 156.496 18.728 155.28 17.512C154.064 16.296 153.456 14.792 153.456 13C153.456 11.224 154.064 9.728 155.28 8.512C156.512 7.28 158.016 6.664 159.792 6.664C161.568 6.664 163.072 7.28 164.304 8.512C165.536 9.744 166.152 11.24 166.152 13C166.152 14.776 165.536 16.28 164.304 17.512ZM157.464 15.376C158.088 16 158.864 16.312 159.792 16.312C160.72 16.312 161.496 16 162.12 15.376C162.744 14.752 163.056 13.96 163.056 13C163.056 12.04 162.744 11.248 162.12 10.624C161.496 10 160.72 9.688 159.792 9.688C158.864 9.688 158.088 10 157.464 10.624C156.856 11.264 156.552 12.056 156.552 13C156.552 13.944 156.856 14.736 157.464 15.376ZM182.394 16.096V7H185.49V19H168.33V7H171.426V16.096H175.362V7H178.458V16.096H182.394ZM192.738 5.272C192.434 5.576 192.058 5.728 191.61 5.728C191.162 5.728 190.778 5.576 190.458 5.272C190.138 4.952 189.978 4.568 189.978 4.12C189.978 3.672 190.138 3.288 190.458 2.968C190.778 2.648 191.162 2.488 191.61 2.488C192.058 2.488 192.434 2.648 192.738 2.968C193.058 3.288 193.218 3.672 193.218 4.12C193.218 4.568 193.058 4.952 192.738 5.272ZM197.298 5.272C196.994 5.576 196.618 5.728 196.17 5.728C195.722 5.728 195.338 5.576 195.018 5.272C194.698 4.952 194.538 4.568 194.538 4.12C194.538 3.672 194.698 3.288 195.018 2.968C195.338 2.648 195.722 2.488 196.17 2.488C196.618 2.488 196.994 2.648 197.298 2.968C197.618 3.288 197.778 3.672 197.778 4.12C197.778 4.568 197.618 4.952 197.298 5.272ZM199.986 14.272H190.938C191.338 15.776 192.466 16.528 194.322 16.528C195.506 16.528 196.402 16.128 197.01 15.328L199.506 16.768C198.322 18.48 196.578 19.336 194.274 19.336C192.29 19.336 190.698 18.736 189.498 17.536C188.298 16.336 187.698 14.824 187.698 13C187.698 11.208 188.29 9.704 189.474 8.488C190.642 7.272 192.162 6.664 194.034 6.664C195.81 6.664 197.258 7.272 198.378 8.488C199.53 9.704 200.106 11.208 200.106 13C200.106 13.336 200.066 13.76 199.986 14.272ZM190.89 11.872H197.01C196.834 11.088 196.474 10.488 195.93 10.072C195.402 9.656 194.77 9.448 194.034 9.448C193.202 9.448 192.514 9.664 191.97 10.096C191.426 10.512 191.066 11.104 190.89 11.872ZM202.591 7H212.095V19H208.999V9.976H205.687V13.984C205.687 17.68 203.999 19.352 200.623 19V16.096C201.263 16.256 201.751 16.144 202.087 15.76C202.423 15.376 202.591 14.728 202.591 13.816V7ZM226.06 15.064L228.724 7H232.036L227.668 19C226.452 22.376 224.34 23.976 221.332 23.8V20.92C222.148 20.936 222.788 20.784 223.252 20.464C223.732 20.144 224.116 19.608 224.404 18.856L219.556 7H222.844L226.06 15.064ZM238.753 19.336C236.945 19.336 235.433 18.728 234.217 17.512C233.017 16.296 232.417 14.792 232.417 13C232.417 11.208 233.017 9.704 234.217 8.488C235.433 7.272 236.945 6.664 238.753 6.664C239.921 6.664 240.985 6.944 241.945 7.504C242.905 8.064 243.633 8.816 244.129 9.76L241.465 11.32C241.225 10.824 240.857 10.432 240.361 10.144C239.881 9.856 239.337 9.712 238.729 9.712C237.801 9.712 237.033 10.024 236.425 10.648C235.817 11.256 235.513 12.04 235.513 13C235.513 13.928 235.817 14.712 236.425 15.352C237.033 15.96 237.801 16.264 238.729 16.264C239.353 16.264 239.905 16.128 240.385 15.856C240.881 15.568 241.249 15.176 241.489 14.68L244.177 16.216C243.649 17.176 242.897 17.936 241.921 18.496C240.961 19.056 239.905 19.336 238.753 19.336ZM245.908 7H256.876V19H253.78V9.904H249.004V19H245.908V7ZM271.377 14.272H262.329C262.729 15.776 263.857 16.528 265.713 16.528C266.897 16.528 267.793 16.128 268.401 15.328L270.897 16.768C269.713 18.48 267.969 19.336 265.665 19.336C263.681 19.336 262.089 18.736 260.889 17.536C259.689 16.336 259.089 14.824 259.089 13C259.089 11.208 259.681 9.704 260.865 8.488C262.033 7.272 263.553 6.664 265.425 6.664C267.201 6.664 268.649 7.272 269.769 8.488C270.921 9.704 271.497 11.208 271.497 13C271.497 13.336 271.457 13.76 271.377 14.272ZM262.281 11.872H268.401C268.225 11.088 267.865 10.488 267.321 10.072C266.793 9.656 266.161 9.448 265.425 9.448C264.593 9.448 263.905 9.664 263.361 10.096C262.817 10.512 262.457 11.104 262.281 11.872ZM287.722 16.096V7H290.818V19H273.658V7H276.754V16.096H280.69V7H283.786V16.096H287.722ZM301.522 11.536V7H304.618V19H301.522V14.44H296.746V19H293.65V7H296.746V11.536H301.522ZM317.679 17.512C316.463 18.728 314.959 19.336 313.167 19.336C311.375 19.336 309.871 18.728 308.655 17.512C307.439 16.296 306.831 14.792 306.831 13C306.831 11.224 307.439 9.728 308.655 8.512C309.887 7.28 311.391 6.664 313.167 6.664C314.943 6.664 316.447 7.28 317.679 8.512C318.911 9.744 319.527 11.24 319.527 13C319.527 14.776 318.911 16.28 317.679 17.512ZM310.839 15.376C311.463 16 312.239 16.312 313.167 16.312C314.095 16.312 314.871 16 315.495 15.376C316.119 14.752 316.431 13.96 316.431 13C316.431 12.04 316.119 11.248 315.495 10.624C314.871 10 314.095 9.688 313.167 9.688C312.239 9.688 311.463 10 310.839 10.624C310.231 11.264 309.927 12.056 309.927 13C309.927 13.944 310.231 14.736 310.839 15.376ZM324.729 13.36H322.281L321.633 7V2.2H325.353V7L324.729 13.36ZM325.545 17.272C325.545 17.832 325.345 18.312 324.945 18.712C324.545 19.112 324.065 19.312 323.505 19.312C322.945 19.312 322.465 19.112 322.065 18.712C321.665 18.312 321.465 17.832 321.465 17.272C321.465 16.712 321.665 16.232 322.065 15.832C322.465 15.432 322.945 15.232 323.505 15.232C324.065 15.232 324.545 15.432 324.945 15.832C325.345 16.232 325.545 16.712 325.545 17.272Z" fill="#313131"/>
</svg>
