<svg width="21" height="21" viewBox="0 0 21 21" fill="none" xmlns="http://www.w3.org/2000/svg">
<g id="Group 51">
<circle id="Ellipse 5" cx="10.5" cy="10.5" r="10.5" fill="#EE7A45"/>
<path id="&#226;&#130;&#172;" d="M11.04 14.2162C11.5347 14.2162 11.964 14.0949 12.328 13.8522C12.7014 13.6096 12.9767 13.2596 13.154 12.8022L13.966 13.2642C13.7234 13.8709 13.3454 14.3422 12.832 14.6782C12.328 15.0049 11.7307 15.1682 11.04 15.1682C10.032 15.1682 9.20136 14.8229 8.54803 14.1322C7.90403 13.4416 7.49803 12.4896 7.33003 11.2762H6.28003V10.4642H7.26003V10.1002C7.26003 9.84823 7.2647 9.68956 7.27403 9.62423H6.28003V8.81223H7.35803C7.52603 7.63623 7.93203 6.71223 8.57603 6.04023C9.22936 5.36823 10.0507 5.03223 11.04 5.03223C11.7307 5.03223 12.328 5.20023 12.832 5.53623C13.3454 5.86289 13.7234 6.32489 13.966 6.92223L13.154 7.38423C12.762 6.45089 12.0574 5.98423 11.04 5.98423C10.3307 5.98423 9.73803 6.23156 9.26203 6.72623C8.79536 7.22089 8.48736 7.91623 8.33803 8.81223H11.88V9.62423H8.25403C8.2447 9.68956 8.24003 9.84823 8.24003 10.1002C8.24003 10.2962 8.2447 10.4176 8.25403 10.4642H11.88V11.2762H8.32403C8.46403 12.2189 8.76736 12.9469 9.23403 13.4602C9.71003 13.9642 10.312 14.2162 11.04 14.2162Z" fill="white"/>
</g>
</svg>
