<svg width="16" height="16" viewBox="0 0 16 16" fill="none" xmlns="http://www.w3.org/2000/svg">
<path d="M2 15.9998C1.45 15.9998 0.979167 15.804 0.5875 15.4123C0.195833 15.0206 0 14.5498 0 13.9998V11.9998C0 11.7165 0.0958333 11.479 0.2875 11.2873C0.479167 11.0956 0.716667 10.9998 1 10.9998C1.28333 10.9998 1.52083 11.0956 1.7125 11.2873C1.90417 11.479 2 11.7165 2 11.9998V13.9998H14V11.9998C14 11.7165 14.0958 11.479 14.2875 11.2873C14.4792 11.0956 14.7167 10.9998 15 10.9998C15.2833 10.9998 15.5208 11.0956 15.7125 11.2873C15.9042 11.479 16 11.7165 16 11.9998V13.9998C16 14.5498 15.8042 15.0206 15.4125 15.4123C15.0208 15.804 14.55 15.9998 14 15.9998H2ZM7 3.8498L5.125 5.7248C4.925 5.9248 4.6875 6.02064 4.4125 6.0123C4.1375 6.00397 3.9 5.8998 3.7 5.6998C3.51667 5.4998 3.42083 5.26647 3.4125 4.9998C3.40417 4.73314 3.5 4.4998 3.7 4.2998L7.3 0.699805C7.4 0.599805 7.50833 0.528971 7.625 0.487305C7.74167 0.445638 7.86667 0.424805 8 0.424805C8.13333 0.424805 8.25833 0.445638 8.375 0.487305C8.49167 0.528971 8.6 0.599805 8.7 0.699805L12.3 4.2998C12.5 4.4998 12.5958 4.73314 12.5875 4.9998C12.5792 5.26647 12.4833 5.4998 12.3 5.6998C12.1 5.8998 11.8625 6.00397 11.5875 6.0123C11.3125 6.02064 11.075 5.9248 10.875 5.7248L9 3.8498V10.9998C9 11.2831 8.90417 11.5206 8.7125 11.7123C8.52083 11.904 8.28333 11.9998 8 11.9998C7.71667 11.9998 7.47917 11.904 7.2875 11.7123C7.09583 11.5206 7 11.2831 7 10.9998V3.8498Z" fill="white"/>
</svg>
