<svg width="17" height="17" viewBox="0 0 17 17" fill="none" xmlns="http://www.w3.org/2000/svg">
<path fill-rule="evenodd" clip-rule="evenodd" d="M8.5 17C13.1944 17 17 13.1944 17 8.5C17 3.80558 13.1944 0 8.5 0C3.80558 0 0 3.80558 0 8.5C0 13.1944 3.80558 17 8.5 17ZM7.28667 9.22333H8.84378C9.53341 9.22333 10.1178 8.99467 10.5969 8.53733C11.076 8.07274 11.3156 7.50289 11.3156 6.82778C11.3156 6.13815 11.076 5.56104 10.5969 5.09644C10.1178 4.61733 9.53341 4.37778 8.84378 4.37778H6.03444V8.10178H5.16333V9.22333H6.03444V9.95289H5.16333V10.8022H6.03444V12H7.28667V10.8022H9.84556V9.95289H7.28667V9.22333ZM7.28667 5.55378H8.84378C9.19222 5.55378 9.47896 5.67718 9.704 5.924C9.94356 6.17081 10.0633 6.47207 10.0633 6.82778C10.0633 7.18348 9.94356 7.48474 9.704 7.73155C9.47896 7.97837 9.19222 8.10178 8.84378 8.10178H7.28667V5.55378Z" fill="white"/>
</svg>
