<svg width="106" height="114" viewBox="0 0 106 114" fill="none" xmlns="http://www.w3.org/2000/svg">
<path d="M80.5514 11.7165C87.7828 18.3274 93.7345 26.5651 99.8548 34.1785C111.29 48.4039 122.338 63.0223 132.352 78.2914C135.783 83.5225 138.985 88.8959 142.506 94.0683C145.066 97.8305 140.837 93.4085 140.203 92.7215C116.037 66.5421 90.4246 41.9682 63.2001 18.9645C58.2866 14.8128 52.633 8.41356 46.6072 5.73132C45.1669 5.09018 47.4359 8.84699 48.3566 10.1273C54.641 18.8663 60.8826 27.5763 66.8896 36.5154C79.8037 55.7329 92.9922 74.5943 107.22 92.8699C112.356 99.4679 117.44 107.564 123.787 113.138C133.164 121.372 105.576 95.9943 95.6001 88.496C87.9365 82.7355 80.2193 76.9731 71.8774 72.2174C70.926 71.675 64.9791 67.679 66.937 71.696C73.6696 85.5097 84.24 98.2742 93.0451 110.787C101.76 123.171 111.012 135.303 118.872 148.269C119.077 148.607 119.226 149.723 118.936 149.454C111.937 142.974 105.499 135.653 98.8389 128.848C86.3017 116.037 73.623 103.423 60.6136 91.0953C57.4285 88.0769 55.1671 85.9337 52.1233 82.903C50.6324 81.4186 48.1646 76.3997 47.6583 78.4421C47.21 80.2511 49.3643 81.7593 50.3297 83.3532C57.1439 94.6034 64.3588 105.619 71.5015 116.661C91.0309 146.851 113.446 176.283 130.443 208.039C130.492 208.132 120.367 197 119.19 195.641C105.687 180.055 92.7768 163.982 79.3935 148.298C77.8615 146.503 59.0468 126.835 66.5231 138.96C71.7191 147.386 79.467 153.993 84.7191 162.376C84.92 162.697 85.2179 163.101 85.1987 163.521C85.1059 165.552 81.6832 161.437 80.1545 160.098C64.2109 146.135 48.8643 131.511 32.8053 117.672C24.1258 110.192 15.4111 102.56 6.39804 95.4765C4.12116 93.687 10.0608 99.9721 12.066 102.062C27.7978 118.456 43.5382 134.843 59.2848 151.222" stroke="#FFD170" stroke-width="11.2363" stroke-linecap="round"/>
</svg>
