<svg width="278" height="183" viewBox="0 0 278 183" fill="none" xmlns="http://www.w3.org/2000/svg">
<circle cx="139.016" cy="139.728" r="138.385" fill="#F5F0E7" stroke="white" stroke-width="0.919505"/>
<path d="M276.482 139.728C276.482 168.855 267.261 197.235 250.141 220.799L138.557 139.728H276.482Z" fill="#FF8F8F"/>
<path d="M250.141 220.799C233.02 244.363 208.879 261.903 181.178 270.904L138.557 139.728L250.141 220.799Z" fill="#F2AE6F"/>
<path d="M177.355 258.679C152.138 266.872 124.975 266.872 99.7577 258.679L138.556 139.269L177.355 258.679Z" fill="#FFD170"/>
<path d="M96.3949 270.904C68.6934 261.903 44.5525 244.363 27.432 220.799L139.016 139.728L96.3949 270.904Z" fill="#DCCD6A"/>
<path d="M49.3881 204.846C35.6365 185.919 28.23 163.123 28.23 139.728L139.016 139.728L49.3881 204.846Z" fill="#9FC65F"/>
<path d="M28.3577 139.729C28.3577 116.394 35.7451 93.6575 49.4612 74.779L138.857 139.729L28.3577 139.729Z" fill="#95C5D3"/>
<path d="M70.885 90.5639C81.2678 76.2732 95.9081 65.6364 112.708 60.1779L138.556 139.729L70.885 90.5639Z" fill="#99B2FE"/>
<path d="M95.9351 8.5533C123.637 -0.447455 153.476 -0.447455 181.178 8.5533L138.557 139.728L95.9351 8.5533Z" fill="#BD93E6"/>
<path d="M228.856 73.9956C242.64 92.9681 250.064 115.817 250.064 139.268L139.016 139.268L228.856 73.9956Z" fill="#F2A6D6"/>
<path d="M168.812 46.6123C188.477 53.0017 205.614 65.4523 217.767 82.1799L138.557 139.729L168.812 46.6123Z" fill="#D3ACE3"/>
<circle cx="139.017" cy="139.729" r="28.0449" stroke="white" stroke-width="0.919505"/>
<path d="M139.016 153.98C146.888 153.98 153.269 147.599 153.269 139.728C153.269 131.857 146.888 125.476 139.016 125.476C131.145 125.476 124.764 131.857 124.764 139.728C124.764 147.599 131.145 153.98 139.016 153.98Z" stroke="white" stroke-width="0.919505"/>
<path d="M139.016 264.322C207.827 264.322 263.609 208.54 263.609 139.729C263.609 70.9181 207.827 15.136 139.016 15.136C70.2054 15.136 14.4233 70.9181 14.4233 139.729C14.4233 208.54 70.2054 264.322 139.016 264.322Z" stroke="white" stroke-width="0.919505"/>
<path d="M139.016 250.529C200.209 250.529 249.816 200.923 249.816 139.729C249.816 78.5359 200.209 28.9289 139.016 28.9289C77.8228 28.9289 28.2158 78.5359 28.2158 139.729C28.2158 200.923 77.8228 250.529 139.016 250.529Z" stroke="white" stroke-width="0.919505"/>
<path d="M139.016 236.737C192.591 236.737 236.023 193.306 236.023 139.73C236.023 86.1537 192.591 42.7219 139.016 42.7219C85.4396 42.7219 42.0078 86.1537 42.0078 139.73C42.0078 193.306 85.4396 236.737 139.016 236.737Z" stroke="white" stroke-width="0.919505"/>
<path d="M139.016 222.945C184.975 222.945 222.232 185.688 222.232 139.73C222.232 93.7716 184.975 56.5149 139.016 56.5149C93.0579 56.5149 55.8012 93.7716 55.8012 139.73C55.8012 185.688 93.0579 222.945 139.016 222.945Z" stroke="white" stroke-width="0.919505"/>
<circle cx="139.016" cy="139.728" r="69.4226" stroke="white" stroke-width="0.919505"/>
<circle cx="139.016" cy="139.729" r="55.63" stroke="white" stroke-width="0.919505"/>
<circle cx="139.016" cy="139.728" r="41.8375" stroke="white" stroke-width="0.919505"/>
<path d="M192.458 65.2312V64.4221H195.731V65.1577L193.921 69.5713H193.031L194.811 65.2312H192.458Z" fill="#1F1F1F"/>
<path d="M93.0327 76.265H93.1283C93.6678 76.265 94.1042 76.4293 94.4377 76.7578C94.7761 77.0815 94.9453 77.5033 94.9453 78.0231C94.9453 78.538 94.7761 78.9622 94.4377 79.2957C94.0993 79.6193 93.6629 79.7812 93.1283 79.7812C92.5889 79.7812 92.15 79.6193 91.8116 79.2957C91.4732 78.9622 91.304 78.538 91.304 78.0231C91.304 77.6308 91.407 77.285 91.613 76.9859L93.246 74.5363H94.2097L93.0327 76.265ZM93.1283 78.9794C93.4127 78.9794 93.6457 78.8935 93.8271 78.7219C94.0086 78.5454 94.0993 78.3124 94.0993 78.0231C94.0993 77.7337 94.0086 77.5033 93.8271 77.3316C93.6457 77.1551 93.4127 77.0668 93.1283 77.0668C92.8341 77.0668 92.5962 77.1551 92.4148 77.3316C92.2382 77.5033 92.15 77.7337 92.15 78.0231C92.15 78.3124 92.2382 78.5454 92.4148 78.7219C92.5962 78.8935 92.8341 78.9794 93.1283 78.9794Z" fill="#1F1F1F"/>
<path d="M40.0811 109.191C40.5862 109.47 40.8388 109.887 40.8388 110.441C40.8388 110.907 40.6745 111.277 40.3459 111.552C40.0222 111.826 39.5858 111.964 39.0365 111.964C38.4873 111.964 38.0484 111.829 37.7198 111.559C37.3912 111.289 37.2269 110.917 37.2269 110.441C37.2269 110.176 37.2931 109.936 37.4256 109.72C37.558 109.5 37.7443 109.323 37.9846 109.191C37.5972 108.936 37.4035 108.573 37.4035 108.102C37.4035 107.631 37.5604 107.268 37.8743 107.013C38.193 106.753 38.5805 106.623 39.0365 106.623C39.4877 106.623 39.8727 106.753 40.1914 107.013C40.5102 107.273 40.6696 107.636 40.6696 108.102C40.6696 108.568 40.4734 108.931 40.0811 109.191ZM39.0365 107.425C38.8011 107.425 38.6099 107.489 38.4628 107.616C38.3205 107.739 38.2494 107.913 38.2494 108.139C38.2494 108.354 38.323 108.529 38.4701 108.661C38.6172 108.788 38.806 108.852 39.0365 108.852C39.2621 108.852 39.4485 108.788 39.5956 108.661C39.7476 108.529 39.8236 108.354 39.8236 108.139C39.8236 107.913 39.7501 107.739 39.6029 107.616C39.4558 107.489 39.267 107.425 39.0365 107.425ZM39.0365 111.162C39.3259 111.162 39.5564 111.091 39.728 110.949C39.9045 110.806 39.9928 110.61 39.9928 110.36C39.9928 110.11 39.9045 109.914 39.728 109.772C39.5564 109.629 39.3259 109.558 39.0365 109.558C38.7423 109.558 38.5069 109.629 38.3303 109.772C38.1587 109.914 38.0729 110.11 38.0729 110.36C38.0729 110.61 38.1587 110.806 38.3303 110.949C38.5069 111.091 38.7423 111.162 39.0365 111.162Z" fill="#1F1F1F"/>
<path d="M40.0811 168.473C40.5862 168.752 40.8388 169.169 40.8388 169.723C40.8388 170.189 40.6745 170.559 40.3459 170.834C40.0222 171.109 39.5858 171.246 39.0365 171.246C38.4873 171.246 38.0484 171.111 37.7198 170.841C37.3912 170.572 37.2269 170.199 37.2269 169.723C37.2269 169.459 37.2931 169.218 37.4256 169.002C37.558 168.782 37.7443 168.605 37.9846 168.473C37.5972 168.218 37.4035 167.855 37.4035 167.384C37.4035 166.913 37.5604 166.55 37.8743 166.295C38.193 166.035 38.5805 165.906 39.0365 165.906C39.4877 165.906 39.8727 166.035 40.1914 166.295C40.5102 166.555 40.6696 166.918 40.6696 167.384C40.6696 167.85 40.4734 168.213 40.0811 168.473ZM39.0365 166.707C38.8011 166.707 38.6099 166.771 38.4628 166.899C38.3205 167.021 38.2494 167.195 38.2494 167.421C38.2494 167.637 38.323 167.811 38.4701 167.943C38.6172 168.071 38.806 168.134 39.0365 168.134C39.2621 168.134 39.4485 168.071 39.5956 167.943C39.7476 167.811 39.8236 167.637 39.8236 167.421C39.8236 167.195 39.7501 167.021 39.6029 166.899C39.4558 166.771 39.267 166.707 39.0365 166.707ZM39.0365 170.444C39.3259 170.444 39.5564 170.373 39.728 170.231C39.9045 170.089 39.9928 169.893 39.9928 169.642C39.9928 169.392 39.9045 169.196 39.728 169.054C39.5564 168.912 39.3259 168.841 39.0365 168.841C38.7423 168.841 38.5069 168.912 38.3303 169.054C38.1587 169.196 38.0729 169.392 38.0729 169.642C38.0729 169.893 38.1587 170.089 38.3303 170.231C38.5069 170.373 38.7423 170.444 39.0365 170.444Z" fill="#1F1F1F"/>
<path d="M135.434 5.13165L136.788 4.65351H137.523V9.80273H136.677V5.5583L135.64 5.85254L135.434 5.13165ZM141.584 9.17012C141.231 9.65561 140.736 9.89836 140.098 9.89836C139.466 9.89836 138.968 9.65561 138.605 9.17012C138.252 8.68462 138.076 8.03729 138.076 7.22812C138.076 6.41896 138.252 5.77163 138.605 5.28613C138.968 4.80063 139.466 4.55788 140.098 4.55788C140.736 4.55788 141.231 4.80063 141.584 5.28613C141.942 5.76672 142.121 6.41405 142.121 7.22812C142.121 8.04219 141.942 8.68952 141.584 9.17012ZM140.098 9.07449C140.481 9.07449 140.773 8.91511 140.974 8.59634C141.175 8.27758 141.275 7.82151 141.275 7.22812C141.275 6.63473 141.175 6.17866 140.974 5.8599C140.773 5.54114 140.481 5.38176 140.098 5.38176C139.721 5.38176 139.429 5.54114 139.223 5.8599C139.022 6.17866 138.922 6.63473 138.922 7.22812C138.922 7.82151 139.022 8.27758 139.223 8.59634C139.429 8.91511 139.721 9.07449 140.098 9.07449Z" fill="#1F1F1F"/>
<path d="M260.989 181.336L262.342 180.858H263.078V186.007H262.232V181.762L261.195 182.057L260.989 181.336ZM267.139 185.374C266.786 185.86 266.29 186.102 265.653 186.102C265.02 186.102 264.523 185.86 264.16 185.374C263.807 184.889 263.63 184.241 263.63 183.432C263.63 182.623 263.807 181.976 264.16 181.49C264.523 181.005 265.02 180.762 265.653 180.762C266.29 180.762 266.786 181.005 267.139 181.49C267.497 181.971 267.676 182.618 267.676 183.432C267.676 184.246 267.497 184.894 267.139 185.374ZM265.653 185.279C266.035 185.279 266.327 185.119 266.528 184.8C266.729 184.482 266.83 184.026 266.83 183.432C266.83 182.839 266.729 182.383 266.528 182.064C266.327 181.745 266.035 181.586 265.653 181.586C265.275 181.586 264.984 181.745 264.778 182.064C264.577 182.383 264.476 182.839 264.476 183.432C264.476 184.026 264.577 184.482 264.778 184.8C264.984 185.119 265.275 185.279 265.653 185.279Z" fill="#1F1F1F"/>
<path d="M240.036 109.191C240.541 109.47 240.794 109.887 240.794 110.441C240.794 110.907 240.629 111.277 240.301 111.552C239.977 111.826 239.541 111.964 238.991 111.964C238.442 111.964 238.003 111.829 237.675 111.559C237.346 111.289 237.182 110.917 237.182 110.441C237.182 110.176 237.248 109.936 237.38 109.72C237.513 109.5 237.699 109.323 237.939 109.191C237.552 108.936 237.358 108.573 237.358 108.102C237.358 107.631 237.515 107.268 237.829 107.013C238.148 106.753 238.535 106.623 238.991 106.623C239.443 106.623 239.827 106.753 240.146 107.013C240.465 107.273 240.624 107.636 240.624 108.102C240.624 108.568 240.428 108.931 240.036 109.191ZM238.991 107.425C238.756 107.425 238.565 107.489 238.418 107.616C238.275 107.739 238.204 107.913 238.204 108.139C238.204 108.354 238.278 108.529 238.425 108.661C238.572 108.788 238.761 108.852 238.991 108.852C239.217 108.852 239.403 108.788 239.55 108.661C239.702 108.529 239.778 108.354 239.778 108.139C239.778 107.913 239.705 107.739 239.558 107.616C239.411 107.489 239.222 107.425 238.991 107.425ZM238.991 111.162C239.281 111.162 239.511 111.091 239.683 110.949C239.859 110.806 239.948 110.61 239.948 110.36C239.948 110.11 239.859 109.914 239.683 109.772C239.511 109.629 239.281 109.558 238.991 109.558C238.697 109.558 238.462 109.629 238.285 109.772C238.114 109.914 238.028 110.11 238.028 110.36C238.028 110.61 238.114 110.806 238.285 110.949C238.462 111.091 238.697 111.162 238.991 111.162Z" fill="#1F1F1F"/>
<line x1="0.381592" y1="139.269" x2="277.334" y2="139.269" stroke="white" stroke-width="0.919505"/>
<line x1="26.5579" y1="220.751" x2="250.617" y2="57.9626" stroke="white" stroke-width="0.919505"/>
<line x1="95.6277" y1="271.286" x2="181.211" y2="7.88831" stroke="white" stroke-width="0.919505"/>
<line x1="181.211" y1="271.57" x2="95.628" y2="8.17245" stroke="white" stroke-width="0.919505"/>
<line x1="250.617" y1="221.495" x2="26.558" y2="58.7065" stroke="white" stroke-width="0.919505"/>
</svg>
