<svg width="17" height="17" viewBox="0 0 17 17" fill="none" xmlns="http://www.w3.org/2000/svg">
<path d="M0.53572 9C0.259578 9 0.03572 8.77614 0.0357202 8.5C0.0357201 8.22386 0.259578 8 0.535721 8L7.81389 8L7.81389 0.721825C7.81389 0.445683 8.03775 0.221824 8.3139 0.221825C8.59004 0.221825 8.8139 0.445682 8.8139 0.721825L8.8139 8L16.0921 8C16.3682 8 16.5921 8.22386 16.5921 8.5C16.5921 8.77614 16.3682 9 16.0921 9H8.8139L8.8139 16.2782C8.8139 16.5543 8.59004 16.7782 8.3139 16.7782C8.03775 16.7782 7.8139 16.5543 7.8139 16.2782L7.8139 9L0.53572 9Z" fill="white"/>
</svg>
