<svg width="24" height="24" viewBox="0 0 24 24" fill="none" xmlns="http://www.w3.org/2000/svg">
<rect width="24" height="24" rx="7.33333" fill="#FF3333"/>
<path d="M3.34493 17.167V15.5789L7.05552 12.1432C7.37109 11.8378 7.63577 11.5629 7.84955 11.3186C8.06672 11.0743 8.2313 10.8351 8.34328 10.6009C8.45526 10.3634 8.51125 10.1072 8.51125 9.83236C8.51125 9.52696 8.44168 9.26398 8.30256 9.04341C8.16343 8.81945 7.97341 8.64809 7.73248 8.52933C7.49156 8.40717 7.21839 8.34609 6.913 8.34609C6.59403 8.34609 6.31577 8.41056 6.07824 8.53951C5.84071 8.66845 5.65747 8.85339 5.52853 9.09431C5.39958 9.33524 5.33511 9.62197 5.33511 9.95452H3.24313C3.24313 9.27246 3.39753 8.68033 3.70632 8.17812C4.01511 7.67591 4.44776 7.28738 5.00426 7.01252C5.56076 6.73766 6.2021 6.60023 6.92827 6.60023C7.67479 6.60023 8.32461 6.73257 8.87772 6.99725C9.43423 7.25853 9.86687 7.62162 10.1757 8.0865C10.4845 8.55138 10.6388 9.08413 10.6388 9.68475C10.6388 10.0784 10.5608 10.4669 10.4047 10.8503C10.252 11.2338 9.97885 11.6597 9.58523 12.1279C9.1916 12.5928 8.6368 13.151 7.92081 13.8025L6.39891 15.2939V15.3651H10.7763V17.167H3.34493ZM16.2264 17.3095C15.4663 17.3095 14.7893 17.1789 14.1955 16.9176C13.605 16.6529 13.1384 16.2898 12.7957 15.8283C12.4564 15.3634 12.2816 14.8273 12.2715 14.2199H14.4907C14.5043 14.4744 14.5874 14.6984 14.7401 14.8918C14.8962 15.0818 15.1032 15.2294 15.3611 15.3346C15.619 15.4398 15.9091 15.4924 16.2314 15.4924C16.5674 15.4924 16.8643 15.433 17.1222 15.3142C17.3801 15.1955 17.582 15.0309 17.7279 14.8205C17.8738 14.6101 17.9468 14.3675 17.9468 14.0927C17.9468 13.8144 17.8687 13.5684 17.7126 13.3546C17.5599 13.1374 17.3394 12.9678 17.0509 12.8456C16.7659 12.7235 16.4266 12.6624 16.0329 12.6624H15.0608V11.0438H16.0329C16.3655 11.0438 16.659 10.9861 16.9135 10.8707C17.1714 10.7553 17.3716 10.5959 17.5141 10.3923C17.6566 10.1853 17.7279 9.94434 17.7279 9.66948C17.7279 9.40819 17.6651 9.17915 17.5396 8.98233C17.4174 8.78213 17.2443 8.62604 17.0204 8.51406C16.7998 8.40208 16.5419 8.34609 16.2467 8.34609C15.9481 8.34609 15.6749 8.40038 15.4272 8.50897C15.1795 8.61416 14.981 8.76516 14.8317 8.96197C14.6824 9.15878 14.6027 9.38953 14.5925 9.65421H12.4801C12.4903 9.05359 12.6617 8.52424 12.9942 8.06614C13.3268 7.60804 13.7747 7.25005 14.338 6.99216C14.9047 6.73087 15.5443 6.60023 16.2569 6.60023C16.9763 6.60023 17.6057 6.73087 18.1453 6.99216C18.6848 7.25344 19.1039 7.60635 19.4025 8.05087C19.7045 8.492 19.8538 8.98742 19.8504 9.53714C19.8538 10.1208 19.6723 10.6077 19.3058 10.998C18.9427 11.3882 18.4693 11.6359 17.8857 11.7411V11.8225C18.6526 11.9209 19.2362 12.1873 19.6366 12.6217C20.0404 13.0526 20.2406 13.5921 20.2372 14.2403C20.2406 14.8341 20.0693 15.3618 19.7232 15.8232C19.3804 16.2847 18.9071 16.6478 18.3031 16.9125C17.6991 17.1772 17.0068 17.3095 16.2264 17.3095Z" fill="white"/>
<path d="M0 11.583H24V14.393C24 16.5067 24 17.5635 23.7837 18.4342C23.1289 21.0703 21.0707 23.1286 18.4346 23.7834C17.5638 23.9997 16.507 23.9997 14.3933 23.9997H9.60667C7.493 23.9997 6.43616 23.9997 5.56545 23.7834C2.92935 23.1286 0.871097 21.0703 0.216286 18.4342C0 17.5635 0 16.5067 0 14.393V11.583Z" fill="black" fill-opacity="0.12"/>
</svg>
