<svg width="16" height="16" viewBox="0 0 16 16" fill="none" xmlns="http://www.w3.org/2000/svg">
<path d="M13.7941 0H1.97059C0.882262 0 0 0.89543 0 2V14C0 15.1046 0.882262 16 1.97059 16H13.7941C14.8824 16 15.7647 15.1046 15.7647 14V2C15.7647 0.89543 14.8824 0 13.7941 0ZM0.985294 3.85714C0.985294 3.38376 1.42643 3 1.97059 3H13.7941C14.3383 3 14.7794 3.38376 14.7794 3.85714V14.1429C14.7794 14.6162 14.3383 15 13.7941 15H1.97059C1.42643 15 0.985294 14.6162 0.985294 14.1429V3.85714Z" fill="black"/>
<path d="M6.40443 7C6.9486 7 7.38973 6.55228 7.38973 6C7.38973 5.44772 6.9486 5 6.40443 5C5.86027 5 5.41914 5.44772 5.41914 6C5.41914 6.55228 5.86027 7 6.40443 7Z" fill="black"/>
<path d="M9.36032 7C9.90448 7 10.3456 6.55228 10.3456 6C10.3456 5.44772 9.90448 5 9.36032 5C8.81615 5 8.37502 5.44772 8.37502 6C8.37502 6.55228 8.81615 7 9.36032 7Z" fill="black"/>
<path d="M12.3162 7C12.8604 7 13.3015 6.55228 13.3015 6C13.3015 5.44772 12.8604 5 12.3162 5C11.772 5 11.3309 5.44772 11.3309 6C11.3309 6.55228 11.772 7 12.3162 7Z" fill="black"/>
<path d="M3.44855 10C3.99271 10 4.43385 9.55228 4.43385 9C4.43385 8.44772 3.99271 8 3.44855 8C2.90439 8 2.46326 8.44772 2.46326 9C2.46326 9.55228 2.90439 10 3.44855 10Z" fill="black"/>
<path d="M6.40443 10C6.9486 10 7.38973 9.55228 7.38973 9C7.38973 8.44772 6.9486 8 6.40443 8C5.86027 8 5.41914 8.44772 5.41914 9C5.41914 9.55228 5.86027 10 6.40443 10Z" fill="black"/>
<path d="M9.36032 10C9.90448 10 10.3456 9.55228 10.3456 9C10.3456 8.44772 9.90448 8 9.36032 8C8.81615 8 8.37502 8.44772 8.37502 9C8.37502 9.55228 8.81615 10 9.36032 10Z" fill="black"/>
<path d="M12.3162 10C12.8604 10 13.3015 9.55228 13.3015 9C13.3015 8.44772 12.8604 8 12.3162 8C11.772 8 11.3309 8.44772 11.3309 9C11.3309 9.55228 11.772 10 12.3162 10Z" fill="black"/>
<path d="M3.44855 13C3.99271 13 4.43385 12.5523 4.43385 12C4.43385 11.4477 3.99271 11 3.44855 11C2.90439 11 2.46326 11.4477 2.46326 12C2.46326 12.5523 2.90439 13 3.44855 13Z" fill="black"/>
<path d="M6.40443 13C6.9486 13 7.38973 12.5523 7.38973 12C7.38973 11.4477 6.9486 11 6.40443 11C5.86027 11 5.41914 11.4477 5.41914 12C5.41914 12.5523 5.86027 13 6.40443 13Z" fill="black"/>
<path d="M9.36032 13C9.90448 13 10.3456 12.5523 10.3456 12C10.3456 11.4477 9.90448 11 9.36032 11C8.81615 11 8.37502 11.4477 8.37502 12C8.37502 12.5523 8.81615 13 9.36032 13Z" fill="black"/>
</svg>
