<svg width="16" height="16" viewBox="0 0 16 16" fill="none" xmlns="http://www.w3.org/2000/svg">
<path d="M2.11487 2.85355C1.92248 2.65829 1.92248 2.34171 2.11487 2.14645C2.30726 1.95118 2.61919 1.95118 2.81158 2.14645L7.88235 7.29289L12.9531 2.14645C13.1455 1.95118 13.4574 1.95118 13.6498 2.14645C13.8422 2.34171 13.8422 2.65829 13.6498 2.85355L8.57905 8L13.6498 13.1464C13.8422 13.3417 13.8422 13.6583 13.6498 13.8536C13.4574 14.0488 13.1455 14.0488 12.9531 13.8536L7.88235 8.70711L2.81158 13.8536C2.61919 14.0488 2.30727 14.0488 2.11487 13.8536C1.92248 13.6583 1.92248 13.3417 2.11487 13.1464L7.18564 8L2.11487 2.85355Z" fill="#F73030"/>
</svg>
