<svg width="280" height="433" viewBox="0 0 280 433" fill="none" xmlns="http://www.w3.org/2000/svg">
<path d="M28.5361 133.161H251.462V433L139.999 349.324L28.5361 433V133.161Z" fill="#E2DBCD"/>
<path d="M136.746 2.24454C137.885 -0.748185 142.115 -0.748177 143.255 2.24454L157.146 38.7171C158.061 41.1191 161.169 41.738 162.933 39.8693L189.711 11.4939C191.908 9.16559 195.816 10.7858 195.725 13.9874L194.614 53.0044C194.541 55.5739 197.176 57.3365 199.52 56.2855L235.108 40.3272C238.028 39.0178 241.019 42.0115 239.711 44.9344L223.768 80.5559C222.718 82.9016 224.479 85.5395 227.045 85.4663L266.026 84.3548C269.224 84.2635 270.843 88.1753 268.517 90.3746L240.169 117.177C238.302 118.943 238.92 122.054 241.32 122.97L277.758 136.874C280.748 138.015 280.748 142.249 277.758 143.39L241.32 157.294C238.92 158.209 238.302 161.321 240.169 163.086L268.517 189.889C270.843 192.088 269.224 196 266.026 195.909L227.045 194.797C224.479 194.724 222.718 197.362 223.768 199.708L239.711 235.329C241.019 238.252 238.028 241.246 235.108 239.936L199.52 223.978C197.176 222.927 194.541 224.69 194.614 227.259L195.725 266.276C195.816 269.478 191.908 271.098 189.711 268.77L162.933 240.394C161.169 238.526 158.061 239.145 157.146 241.546L143.255 278.019C142.115 281.012 137.885 281.012 136.746 278.019L122.854 241.546C121.94 239.145 118.831 238.526 117.067 240.394L90.2898 268.77C88.0926 271.098 84.1844 269.478 84.2757 266.276L85.3861 227.259C85.4592 224.69 82.8238 222.927 80.4803 223.978L44.8922 239.936C41.972 241.246 38.9811 238.252 40.2893 235.329L56.2326 199.708C57.2826 197.361 55.5217 194.724 52.9546 194.797L13.9742 195.909C10.7756 196 9.15697 192.088 11.4831 189.889L39.8318 163.086C41.6988 161.321 41.0804 158.209 38.6807 157.294L2.24243 143.39C-0.747479 142.249 -0.747472 138.015 2.24243 136.874L38.6808 122.97C41.0804 122.054 41.6988 118.943 39.8318 117.177L11.4831 90.3746C9.15697 88.1753 10.7756 84.2635 13.9742 84.3548L52.9546 85.4663C55.5217 85.5395 57.2826 82.9016 56.2326 80.5559L40.2893 44.9344C38.9811 42.0115 41.972 39.0178 44.8922 40.3272L80.4803 56.2855C82.8238 57.3365 85.4592 55.5739 85.3861 53.0044L84.2757 13.9873C84.1844 10.7858 88.0926 9.16559 90.2898 11.4939L117.067 39.8693C118.831 41.738 121.94 41.1191 122.854 38.7171L136.746 2.24454Z" fill="#ECE6DA"/>
</svg>
