<svg width="284" height="439" viewBox="0 0 284 439" fill="none" xmlns="http://www.w3.org/2000/svg">
<path d="M28.9434 135.006H255.054V439L141.999 354.164L28.9434 439V135.006Z" fill="#FFD170"/>
<path d="M138.699 2.27564C139.855 -0.758552 144.145 -0.758545 145.301 2.27564L159.391 39.2536C160.319 41.6889 163.472 42.3164 165.261 40.4218L192.421 11.6531C194.649 9.2926 198.613 10.9352 198.521 14.1812L197.394 53.7389C197.32 56.344 199.993 58.131 202.37 57.0654L238.467 40.886C241.428 39.5584 244.462 42.5936 243.135 45.5571L226.964 81.6721C225.899 84.0504 227.686 86.7248 230.289 86.6506L269.826 85.5237C273.07 85.4311 274.712 89.3971 272.353 91.6269L243.6 118.801C241.706 120.591 242.333 123.746 244.767 124.674L281.725 138.771C284.758 139.927 284.758 144.22 281.725 145.376L244.767 159.473C242.333 160.402 241.706 163.556 243.6 165.346L272.353 192.52C274.712 194.75 273.07 198.716 269.826 198.623L230.289 197.497C227.686 197.422 225.899 200.097 226.964 202.475L243.135 238.59C244.462 241.554 241.428 244.589 238.467 243.261L202.37 227.082C199.993 226.016 197.32 227.803 197.394 230.408L198.521 269.966C198.613 273.212 194.649 274.855 192.421 272.494L165.261 243.726C163.472 241.831 160.319 242.459 159.391 244.893L145.301 281.872C144.145 284.905 139.855 284.905 138.699 281.872L124.609 244.893C123.682 242.459 120.528 241.831 118.74 243.726L91.5796 272.494C89.351 274.855 85.387 273.212 85.4796 269.966L86.6059 230.408C86.6801 227.803 84.007 226.016 81.6301 227.082L45.5335 243.261C42.5716 244.589 39.538 241.554 40.8649 238.59L57.036 202.475C58.1009 200.096 56.3149 197.422 53.7111 197.497L14.1738 198.623C10.9296 198.716 9.28779 194.75 11.6472 192.52L40.4009 165.346C42.2945 163.556 41.6673 160.402 39.2333 159.473L2.27446 145.376C-0.758158 144.22 -0.758151 139.927 2.27446 138.771L39.2333 124.674C41.6673 123.746 42.2945 120.591 40.4009 118.801L11.6471 91.6269C9.28779 89.3971 10.9296 85.4311 14.1738 85.5237L53.7111 86.6506C56.3149 86.7248 58.1009 84.0504 57.0359 81.6721L40.8649 45.5571C39.538 42.5936 42.5716 39.5584 45.5335 40.886L81.6301 57.0654C84.007 58.131 86.6801 56.344 86.6059 53.7389L85.4796 14.1811C85.387 10.9352 89.351 9.2926 91.5796 11.6531L118.74 40.4218C120.528 42.3164 123.682 41.6889 124.609 39.2536L138.699 2.27564Z" fill="#FFE6B3"/>
</svg>
