<svg width="55" height="41" viewBox="0 0 55 41" fill="none" xmlns="http://www.w3.org/2000/svg">
<path d="M34.4962 5.28368C35.0835 3.99789 36.8931 3.99789 37.4804 5.28368L41.8618 14.8758C42.1011 15.3999 42.5929 15.7607 43.1604 15.8286L53.5482 17.0724C54.9406 17.2391 55.4998 18.9771 54.4704 19.9385L46.7904 27.1105C46.3709 27.5023 46.183 28.0862 46.2944 28.6522L48.333 39.013C48.6063 40.4019 47.1423 41.476 45.9187 40.7844L36.7909 35.6248C36.2922 35.3429 35.6844 35.3429 35.1857 35.6248L26.0579 40.7844C24.8343 41.476 23.3703 40.4019 23.6436 39.013L25.6822 28.6522C25.7936 28.0862 25.6057 27.5023 25.1862 27.1105L17.5062 19.9385C16.4768 18.9771 17.036 17.2391 18.4284 17.0724L28.8162 15.8286C29.3837 15.7607 29.8755 15.3999 30.1148 14.8758L34.4962 5.28368Z" fill="#F5F0E7"/>
<path d="M20.6464 0.491272C20.9456 -0.163757 21.8675 -0.163757 22.1666 0.491271L23.4539 3.30956C23.5759 3.57653 23.8264 3.76034 24.1155 3.79496L27.1676 4.16038C27.8769 4.24532 28.1618 5.13071 27.6374 5.62047L25.3809 7.72771C25.1672 7.92731 25.0715 8.22473 25.1282 8.51309L25.7272 11.5572C25.8664 12.2647 25.1206 12.8119 24.4972 12.4596L21.8154 10.9437C21.5613 10.8001 21.2517 10.8001 20.9976 10.9437L18.3158 12.4596C17.6924 12.8119 16.9466 12.2647 17.0858 11.5572L17.6848 8.51309C17.7416 8.22473 17.6459 7.92731 17.4321 7.72771L15.1757 5.62048C14.6512 5.13071 14.9361 4.24532 15.6454 4.16038L18.6975 3.79496C18.9866 3.76034 19.2371 3.57653 19.3591 3.30956L20.6464 0.491272Z" fill="#F5F0E7"/>
<path d="M5.74048 9.89947C6.03968 9.24445 6.96157 9.24445 7.26076 9.89947L8.54806 12.7178C8.66999 12.9847 8.92053 13.1685 9.20963 13.2032L12.2617 13.5686C12.971 13.6535 13.2559 14.5389 12.7315 15.0287L10.475 17.1359C10.2613 17.3355 10.1656 17.6329 10.2223 17.9213L10.8213 20.9654C10.9605 21.6729 10.2147 22.2202 9.59136 21.8678L6.9095 20.3519C6.65546 20.2083 6.34579 20.2083 6.09175 20.3519L3.40988 21.8678C2.78657 22.2202 2.04074 21.6729 2.17995 20.9654L2.77893 17.9213C2.83567 17.6329 2.73997 17.3355 2.52623 17.1359L0.26977 15.0287C-0.254676 14.5389 0.0302039 13.6535 0.739562 13.5686L3.79161 13.2032C4.08072 13.1685 4.33125 12.9847 4.45319 12.7178L5.74048 9.89947Z" fill="#F5F0E7"/>
<path d="M13.1363 25.0765C13.4561 24.3762 14.4511 24.3762 14.7709 25.0765L15.9877 27.7404C16.1179 28.0254 16.3871 28.222 16.6982 28.2592L19.5979 28.6064C20.3567 28.6973 20.6629 29.6337 20.1043 30.1553L17.9487 32.1684C17.7219 32.3802 17.6204 32.6941 17.6803 32.9986L18.2507 35.8975C18.3989 36.6508 17.5953 37.2311 16.9269 36.8533L14.3958 35.4225C14.1214 35.2674 13.7858 35.2674 13.5114 35.4225L10.9803 36.8533C10.3119 37.2311 9.50826 36.6508 9.65648 35.8976L10.2269 32.9986C10.2868 32.6941 10.1853 32.3802 9.95853 32.1684L7.80287 30.1553C7.24433 29.6337 7.55053 28.6973 8.30933 28.6064L11.209 28.2592C11.5201 28.222 11.7893 28.0254 11.9195 27.7404L13.1363 25.0765Z" fill="#F5F0E7"/>
</svg>
