<svg width="140" height="152" viewBox="0 0 140 152" fill="none" xmlns="http://www.w3.org/2000/svg">
<path d="M33.6435 5.12778C20.5648 3.53913 16.493 29.5773 16.0919 42.7949C15.0071 55.8247 10.0779 56.8532 9.23289 66.4249C8.20144 78.1089 15.9425 80.6727 13.723 96.1223C11.5035 111.572 -5.66538 112.26 2.23502 126.037C10.1354 139.815 49.1501 133.029 63.6288 127.824C78.1076 122.62 85.1627 118.387 109.761 111.511C134.36 104.635 102.939 68.6675 97.2044 57.6849C91.4701 46.7023 113.519 81.1438 120.205 73.648C126.892 66.1523 138.031 79.3656 133.995 69.3806C129.96 59.3955 102.156 45.3629 92.0363 47.0348C81.9164 48.7067 79.8758 35.3245 70.007 15.8218C60.1382 -3.68087 49.9919 7.1136 33.6435 5.12778Z" fill="#ECE5D9"/>
<path d="M74.029 40.4813C71.9654 44.4807 67.0505 46.0499 63.0512 43.9864C59.0519 41.9228 57.4827 37.0079 59.5462 33.0086C61.6098 29.0093 66.5247 27.44 70.524 29.5036C74.5233 31.5671 76.0925 36.482 74.029 40.4813Z" fill="#E2DBCD"/>
<path d="M38.7173 45.9044C36.6538 49.9037 31.7389 51.473 27.7396 49.4094C23.7403 47.3459 22.171 42.431 24.2346 38.4317C26.2981 34.4323 31.213 32.8631 35.2123 34.9267C39.2116 36.9902 40.7809 41.9051 38.7173 45.9044Z" fill="#E2DBCD"/>
<path d="M53.1693 42.0864C53.3772 43.1543 52.1029 44.301 50.3231 44.6475C48.5432 44.9941 46.9318 44.4093 46.7239 43.3414C46.516 42.2735 47.7903 41.1268 49.5701 40.7803C51.35 40.4337 52.9614 41.0185 53.1693 42.0864Z" fill="#9C9B99"/>
<path d="M74.6233 52.3612C51.8167 58.2472 45.111 105.23 44.6089 127.985L43.9998 151.009C46.0542 143.445 50.6546 128.511 52.621 129.287C55.079 130.258 55.9827 139.92 54.8863 145.07C53.7898 150.221 60.941 146.53 64.134 138.485C67.327 130.44 64.3689 128.341 67.6463 129.635C70.9237 130.929 68.3693 137.365 66.4534 142.192C64.5376 147.019 71.3695 144.133 73.2854 139.305C75.2012 134.478 76.2976 129.328 80.7136 130.141C85.1296 130.953 80.6595 142.216 82.8403 148.661C85.0212 155.105 85.2983 149.631 88.8107 140.781C92.323 131.932 91.7808 126.134 95.8775 127.752C99.9742 129.369 97.8234 144.339 100.281 145.31C102.74 146.28 104.113 135.655 105.071 133.242C106.029 130.828 113.915 118.122 114.638 125.852C115.361 133.582 105.698 148.378 117.361 138.093C129.025 127.809 142.49 81.9429 132.073 67.5954C123.778 56.1698 103.132 45.0037 74.6233 52.3612Z" fill="#F5F0E7"/>
<path d="M118.973 85.8588C116.71 92.4422 113.789 98.8971 103.553 93.9079C98.7356 91.5601 96.5799 85.5603 98.8427 78.977C101.105 72.3937 107.446 68.5974 113.005 70.4978C118.564 72.3982 121.236 79.2755 118.973 85.8588Z" fill="#FFFBF4"/>
<path d="M74.8579 76.9236C74.0679 83.8382 73.9283 90.919 85.3207 90.7951C90.6818 90.7368 95.2113 86.2408 96.0013 79.3262C96.7912 72.4116 92.6985 66.2683 86.8599 65.6049C81.0214 64.9415 75.6479 70.009 74.8579 76.9236Z" fill="#FFFBF4"/>
<path d="M106.966 88.0631C106.252 90.142 103.982 91.2496 101.898 90.537C99.8133 89.8244 98.7027 87.5614 99.4172 85.4824C100.132 83.4035 102.401 82.2959 104.486 83.0085C106.57 83.7212 107.681 85.9842 106.966 88.0631Z" fill="#9C9B99"/>
<path d="M115.659 109.168C114.501 112.536 110.826 114.33 107.449 113.175C104.073 112.021 102.274 108.356 103.431 104.988C104.589 101.621 108.264 99.8266 111.641 100.981C115.017 102.135 116.816 105.801 115.659 109.168Z" fill="#FFFBF4"/>
<path d="M83.1578 103.076C81.9398 106.619 78.0719 108.507 74.5187 107.293C70.9654 106.078 69.0723 102.221 70.2904 98.6769C71.5084 95.1333 75.3762 93.2453 78.9295 94.46C82.4827 95.6748 84.3758 99.5322 83.1578 103.076Z" fill="#FFFBF4"/>
<path d="M84.7511 84.0584C84.5016 86.242 86.0743 88.2138 88.2638 88.4626C90.4532 88.7113 92.4304 87.1429 92.6799 84.9594C92.9293 82.7758 91.3566 80.804 89.1672 80.5552C86.9777 80.3064 85.0006 81.8748 84.7511 84.0584Z" fill="#9C9B99"/>
<path d="M95.6108 96.3918C95.7327 95.8079 95.376 95.2399 94.814 95.1232C94.2521 95.0064 93.6977 95.3852 93.5757 95.9691C93.4538 96.5531 93.8105 97.1211 94.3724 97.2378C94.9344 97.3545 95.4888 96.9758 95.6108 96.3918Z" fill="#9C9B99"/>
<path d="M61.5193 102.864C61.5192 106.351 37.2428 96.0157 25.1047 90.4124C29.4399 88.3371 40.4514 85.0581 49.8152 88.5446C61.5195 92.9026 61.5194 98.5061 61.5193 102.864Z" fill="#ECE5D9"/>
<path d="M130.055 72.9916C128.691 53.8956 113.639 56.5756 109.701 51.3225C116.267 54.6058 139.247 64.4237 139.248 70.3651C139.251 83.047 130.712 82.1846 130.055 72.9916Z" fill="#ECE5D9"/>
<path d="M29.9998 8C29.9998 10.7614 27.7613 13 24.9998 13C22.2384 13 19.9998 10.7614 19.9998 8C19.9998 5.23858 22.2384 3 24.9998 3C27.7613 3 29.9998 5.23858 29.9998 8Z" fill="#E2DBCD"/>
<path d="M67.9993 5C67.9993 7.76142 65.7608 10 62.9993 10C60.2379 10 57.9993 7.76142 57.9993 5C57.9993 2.23858 60.2379 0 62.9993 0C65.7608 0 67.9993 2.23858 67.9993 5Z" fill="#E2DBCD"/>
</svg>
