<svg width="140" height="151" viewBox="0 0 140 151" fill="none" xmlns="http://www.w3.org/2000/svg">
<path d="M33.0786 5.30416C19.9885 3.81241 16.1096 29.88 15.8064 43.1003C14.8181 56.1377 9.89667 57.2027 9.12258 66.7804C8.17768 78.4716 15.9375 80.9781 13.8325 96.4437C11.7274 111.909 -5.43587 112.724 2.56633 126.443C10.5685 140.162 49.5319 133.087 63.9717 127.775C78.4115 122.464 85.4351 118.179 109.982 111.121C134.529 104.063 102.842 68.329 97.0269 57.3892C91.2114 46.4493 113.515 80.7266 120.145 73.1816C126.776 65.6365 138.013 78.767 133.903 68.8121C129.794 58.8572 101.887 45.0309 91.7801 46.7776C81.6729 48.5244 79.5333 35.1577 69.5203 15.7286C59.5073 -3.70044 49.4412 7.16886 33.0786 5.30416Z" fill="#FFD170"/>
<circle cx="66.7877" cy="36.7453" r="8.14851" transform="rotate(27.2927 66.7877 36.7453)" fill="#F4C664"/>
<circle cx="31.4757" cy="42.1692" r="8.14851" transform="rotate(27.2927 31.4757 42.1692)" fill="#F4C664"/>
<ellipse cx="49.9464" cy="42.7143" rx="3.28322" ry="1.96993" transform="rotate(-11.018 49.9464 42.7143)" fill="#3E3E3E"/>
<path d="M32.0865 35.3911C33.7431 28.6161 41.6034 30.3091 42.8197 35.0329" stroke="black" stroke-linecap="round"/>
<path d="M50.3405 43.7745C50.173 46.9689 53.8488 47.2639 55.0071 45.3499" stroke="#3E3E3E" stroke-linecap="round"/>
<path d="M46.6827 48.1478C49.2479 50.0589 51.532 47.1638 50.5819 45.1384" stroke="#3E3E3E" stroke-linecap="round"/>
<path d="M51.7448 33.1547C52.1702 26.1931 60.2062 26.4612 62.2432 30.8934" stroke="black" stroke-linecap="round"/>
<path d="M76.1002 52.5322C53.5804 58.3599 46.959 104.877 46.4633 127.407L45.8618 150.203C47.8904 142.714 52.4329 127.928 54.3746 128.696C56.8017 129.657 57.694 139.224 56.6113 144.323C55.5287 149.423 62.5899 145.768 65.7428 137.803C68.8957 129.837 65.9748 127.76 69.2109 129.041C72.4471 130.322 69.9249 136.694 68.0331 141.473C66.1413 146.253 72.8873 143.395 74.7791 138.615C76.6709 133.836 77.7535 128.737 82.1139 129.541C86.4744 130.346 82.0605 141.497 84.2139 147.878C86.3673 154.259 86.641 148.839 90.1092 140.077C93.5773 131.315 93.0419 125.575 97.0871 127.176C101.132 128.777 99.0086 143.599 101.436 144.56C103.863 145.521 105.219 135.001 106.165 132.612C107.111 130.222 114.898 117.642 115.612 125.295C116.326 132.948 106.784 147.598 118.301 137.415C129.818 127.232 143.113 81.8208 132.828 67.6155C124.636 56.3031 104.25 45.2476 76.1002 52.5322Z" fill="#F2A6D6"/>
<path d="M119.891 85.6978C117.657 92.2159 114.772 98.607 104.665 93.6672C99.9086 91.3426 97.78 85.4023 100.014 78.8842C102.249 72.366 108.51 68.6074 113.999 70.4889C119.487 72.3705 122.126 79.1797 119.891 85.6978Z" fill="#FCFCFF"/>
<path d="M76.3303 76.8515C75.5503 83.6976 75.4124 90.7082 86.6615 90.5856C91.9552 90.5278 96.4278 86.0764 97.2078 79.2302C97.9878 72.3841 93.9466 66.3017 88.1814 65.6449C82.4163 64.988 77.1103 70.0054 76.3303 76.8515Z" fill="#FCFCFF"/>
<path d="M108.036 87.8816C107.33 89.94 105.09 91.0366 103.031 90.331C100.973 89.6254 99.8763 87.3848 100.582 85.3265C101.287 83.2681 103.528 82.1715 105.586 82.8771C107.645 83.5827 108.741 85.8233 108.036 87.8816Z" fill="#3E3E3E"/>
<path d="M116.619 108.777C115.476 112.111 111.847 113.887 108.513 112.744C105.179 111.601 103.403 107.972 104.546 104.638C105.688 101.304 109.318 99.5275 112.652 100.67C115.986 101.813 117.762 105.443 116.619 108.777Z" fill="#F499D3"/>
<path d="M84.5274 102.743C83.3247 106.251 79.5055 108.121 75.9969 106.918C72.4884 105.715 70.6191 101.896 71.8218 98.3873C73.0245 94.8788 76.8437 93.0095 80.3523 94.2122C83.8608 95.4149 85.7301 99.2341 84.5274 102.743Z" fill="#F499D3"/>
<path d="M86.0998 83.9131C85.8535 86.075 87.4064 88.0273 89.5684 88.2736C91.7303 88.5199 93.6826 86.967 93.9289 84.8051C94.1752 82.6432 92.6223 80.6909 90.4604 80.4446C88.2985 80.1982 86.3462 81.7511 86.0998 83.9131Z" fill="#3E3E3E"/>
<path d="M96.8244 96.1265C96.9448 95.5483 96.5926 94.986 96.0377 94.8704C95.4828 94.7548 94.9354 95.1298 94.8149 95.708C94.6945 96.2862 95.0467 96.8486 95.6016 96.9641C96.1565 97.0797 96.704 96.7047 96.8244 96.1265Z" fill="#3E3E3E"/>
<path d="M61.5196 102.864C61.5195 106.351 37.2431 96.0157 25.105 90.4124C29.4403 88.3371 40.4518 85.0581 49.8155 88.5446C61.5198 92.9026 61.5197 98.5056 61.5196 102.864V102.864Z" fill="#FFD170"/>
<path d="M95.8699 95.9742C94.3075 98.7656 97.4743 100.655 99.3594 99.4502" stroke="#3E3E3E" stroke-linecap="round"/>
<path d="M90.6564 98.2798C92.1125 101.128 95.4412 99.5408 95.4842 97.304" stroke="#3E3E3E" stroke-linecap="round"/>
<path d="M130.055 72.9916C128.691 53.8956 113.639 56.5756 109.701 51.3225C116.267 54.6058 139.247 64.4237 139.248 70.3651C139.251 83.047 130.712 82.1846 130.055 72.9916Z" fill="#FFD170"/>
<circle cx="25" cy="8" r="5" fill="#FFD170"/>
<circle cx="62.9995" cy="5" r="5" fill="#FFD170"/>
</svg>
