<svg width="38" height="41" viewBox="0 0 38 41" fill="none" xmlns="http://www.w3.org/2000/svg">
<path d="M12.3733 0.954039C3.15836 3.33224 0.448941 22.3154 0.2461 31.5097L0 40.8123C0.830062 37.756 2.68882 31.722 3.48334 32.0356C4.4765 32.4277 4.84163 36.3317 4.39861 38.4128C3.95559 40.4938 6.84499 39.0025 8.13511 35.7519C9.42524 32.5013 8.23004 31.6535 9.55425 32.1762C10.8785 32.6989 9.84638 35.2994 9.07228 37.2498C8.29819 39.2002 11.0586 38.0339 11.8327 36.0835C12.6068 34.1331 13.0498 32.0521 14.834 32.3805C16.6183 32.7088 14.8122 37.2596 15.6933 39.8634C16.5745 42.4673 16.6865 40.2555 18.1056 36.6798C19.5248 33.1042 19.3057 30.7618 20.9609 31.4152C22.6162 32.0686 21.7472 38.1173 22.7404 38.5094C23.7335 38.9014 24.2885 34.6087 24.6755 33.6335C25.0626 32.6583 28.249 27.5244 28.5411 30.6476C28.8332 33.7708 24.9287 39.7492 29.6413 35.5937C34.3539 31.4383 39.7944 12.9064 35.5856 7.10935C32.2339 2.4929 23.8919 -2.01872 12.3733 0.954039Z" fill="#F5F0E7"/>
<path d="M30.2926 14.4886C29.3783 17.1486 28.1978 19.7567 24.062 17.7408C22.1157 16.7922 21.2447 14.368 22.159 11.708C23.0733 9.04807 25.6352 7.51421 27.8812 8.28205C30.1272 9.04988 31.2068 11.8287 30.2926 14.4886Z" fill="#FFFBF4"/>
<path d="M12.4681 10.8784C12.1489 13.6722 12.0925 16.5331 16.6955 16.4831C18.8616 16.4595 20.6918 14.6429 21.011 11.8491C21.3301 9.0553 19.6765 6.57315 17.3174 6.30509C14.9584 6.03703 12.7873 8.08456 12.4681 10.8784Z" fill="#FFFBF4"/>
<path d="M25.4412 15.3792C25.1525 16.2192 24.2357 16.6667 23.3934 16.3788C22.5512 16.0909 22.1024 15.1765 22.3912 14.3365C22.6799 13.4965 23.5967 13.049 24.439 13.3369C25.2812 13.6249 25.73 14.5392 25.4412 15.3792Z" fill="#9C9B99"/>
<path d="M28.9535 23.9067C28.4859 25.2673 27.0008 25.9922 25.6365 25.5258C24.2723 25.0594 23.5454 23.5783 24.0131 22.2177C24.4807 20.8571 25.9658 20.1322 27.3301 20.5986C28.6944 21.065 29.4212 22.5461 28.9535 23.9067Z" fill="#FFFBF4"/>
<path d="M15.8216 21.4451C15.3295 22.8769 13.7667 23.6397 12.331 23.1489C10.8953 22.6581 10.1304 21.0995 10.6226 19.6677C11.1147 18.2359 12.6775 17.4731 14.1132 17.9639C15.5488 18.4547 16.3137 20.0133 15.8216 21.4451Z" fill="#FFFBF4"/>
<path d="M16.4654 13.7611C16.3646 14.6434 17 15.4401 17.8847 15.5406C18.7693 15.6412 19.5682 15.0074 19.669 14.1252C19.7697 13.2429 19.1343 12.4462 18.2497 12.3457C17.365 12.2452 16.5662 12.8789 16.4654 13.7611Z" fill="#9C9B99"/>
<ellipse cx="0.419897" cy="0.436428" rx="0.419897" ry="0.436428" transform="matrix(0.979103 0.203366 0.204422 -0.978883 19.9419 19.001)" fill="#9C9B99"/>
<path d="M20.3139 18.8486C20.3139 18.8486 18.8859 21.8736 17.7051 19.5582" stroke="#9C9B99" stroke-width="0.500658" stroke-linecap="round"/>
<path d="M21.8203 21.105C21.8203 21.105 19.31 21.5852 20.3533 18.8395" stroke="#9C9B99" stroke-width="0.500658" stroke-linecap="round"/>
</svg>
