<svg width="17" height="17" viewBox="0 0 17 17" fill="none" xmlns="http://www.w3.org/2000/svg">
<path fill-rule="evenodd" clip-rule="evenodd" d="M17 8.5C17 10.7543 16.1045 12.9163 14.5104 14.5104C12.9163 16.1045 10.7543 17 8.5 17C6.24566 17 4.08365 16.1045 2.48959 14.5104C0.895533 12.9163 0 10.7543 0 8.5C0 6.24566 0.895533 4.08365 2.48959 2.48959C4.08365 0.895533 6.24566 0 8.5 0C10.7543 0 12.9163 0.895533 14.5104 2.48959C16.1045 4.08365 17 6.24566 17 8.5ZM8.5 3.71875C8.5 3.57785 8.44403 3.44273 8.3444 3.3431C8.24477 3.24347 8.10965 3.1875 7.96875 3.1875C7.82785 3.1875 7.69273 3.24347 7.5931 3.3431C7.49347 3.44273 7.4375 3.57785 7.4375 3.71875V9.5625C7.43753 9.65614 7.46231 9.74811 7.50933 9.82909C7.55635 9.91007 7.62394 9.97718 7.70525 10.0236L11.424 12.1486C11.546 12.2146 11.689 12.2302 11.8224 12.1921C11.9558 12.154 12.069 12.0653 12.1378 11.9448C12.2067 11.8244 12.2256 11.6818 12.1907 11.5476C12.1558 11.4133 12.0698 11.298 11.951 11.2264L8.5 9.25438V3.71875Z" fill="white"/>
</svg>
