<svg width="20" height="20" viewBox="0 0 20 20" fill="none" xmlns="http://www.w3.org/2000/svg">
<path d="M13.75 6.875C13.75 6.52982 14.0298 6.25 14.375 6.25H16.875C17.2202 6.25 17.5 6.52982 17.5 6.875V8.125C17.5 8.47018 17.2202 8.75 16.875 8.75H14.375C14.0298 8.75 13.75 8.47018 13.75 8.125V6.875Z" fill="white"/>
<path d="M2.5 2.5C1.11929 2.5 0 3.61929 0 5V15C0 16.3807 1.11929 17.5 2.5 17.5H17.5C18.8807 17.5 20 16.3807 20 15V5C20 3.61929 18.8807 2.5 17.5 2.5H2.5ZM18.75 5V11.25H1.25V5C1.25 4.30964 1.80964 3.75 2.5 3.75H17.5C18.1904 3.75 18.75 4.30964 18.75 5ZM17.5 16.25H2.5C1.80964 16.25 1.25 15.6904 1.25 15V13.75H18.75V15C18.75 15.6904 18.1904 16.25 17.5 16.25Z" fill="white"/>
</svg>
