<svg width="21" height="21" viewBox="0 0 21 21" fill="none" xmlns="http://www.w3.org/2000/svg">
<g id="Group 50">
<circle id="Ellipse 6" cx="10.5" cy="10.5" r="10.5" fill="#EE7A45"/>
<path id="&#226;&#130;&#189;" d="M12.04 11.0802H9.52003V12.3962H13.16V13.2082H9.52003V15.0002H8.54003V13.2082H7.28003V12.3962H8.54003V11.0802H7.28003V10.1562H8.54003V5.2002H12.04C12.8427 5.2002 13.5334 5.48953 14.112 6.0682C14.6907 6.64686 14.98 7.33753 14.98 8.1402C14.98 8.94286 14.6907 9.63353 14.112 10.2122C13.5334 10.7909 12.8427 11.0802 12.04 11.0802ZM12.04 6.1242H9.52003V10.1562H12.04C12.5814 10.1562 13.0434 9.9602 13.426 9.5682C13.8087 9.15753 14 8.68153 14 8.1402C14 7.58953 13.8087 7.11353 13.426 6.7122C13.0434 6.3202 12.5814 6.1242 12.04 6.1242Z" fill="white"/>
</g>
</svg>
