<svg width="143" height="144" viewBox="0 0 143 144" fill="none" xmlns="http://www.w3.org/2000/svg">
<g clip-path="url(#clip0_2209_6288)">
<circle cx="71.5" cy="71.5" r="57.5" fill="#F5F0E7"/>
<path d="M85.1855 72C85.1855 79.6113 79.0585 85.7812 71.5 85.7812C63.9415 85.7812 57.8145 79.6113 57.8145 72C57.8145 64.3887 63.9415 58.2188 71.5 58.2188C79.0585 58.2188 85.1855 64.3887 85.1855 72Z" fill="#EE7A45"/>
<path d="M103.506 47.6169C102.848 45.8218 101.798 44.1969 100.435 42.8632C99.11 41.4899 97.4975 40.433 95.7137 39.7705C94.2671 39.2047 92.0938 38.5313 88.0909 38.3478C83.7607 38.1489 82.4624 38.1061 71.5 38.1061C60.5365 38.1061 59.2382 38.1478 54.9091 38.3467C50.9062 38.5312 48.7318 39.2047 47.2863 39.7705C45.5025 40.433 43.8889 41.4899 42.5655 42.8632C41.2017 44.1969 40.1522 45.8207 39.4932 47.6169C38.9314 49.0737 38.2626 51.2633 38.0804 55.2942C37.8829 59.6536 37.8404 60.9609 37.8404 72.0011C37.8404 83.0402 37.8829 84.3475 38.0804 88.708C38.2626 92.7389 38.9314 94.9274 39.4932 96.3842C40.1522 98.1804 41.2007 99.8042 42.5644 101.138C43.8889 102.511 45.5014 103.568 47.2852 104.231C48.7318 104.797 50.9062 105.471 54.9091 105.654C59.2382 105.853 60.5354 105.895 71.4989 105.895C82.4635 105.895 83.7618 105.853 88.0898 105.654C92.0927 105.471 94.2671 104.797 95.7137 104.231C99.2944 102.84 102.124 99.9899 103.506 96.3842C104.068 94.9274 104.736 92.7389 104.92 88.708C105.117 84.3475 105.159 83.0402 105.159 72.0011C105.159 60.9609 105.117 59.6536 104.92 55.2942C104.737 51.2633 104.069 49.0737 103.506 47.6169ZM71.5 93.23C59.8557 93.23 50.4164 83.7257 50.4164 72C50.4164 60.2743 59.8557 50.77 71.5 50.77C83.1432 50.77 92.5826 60.2743 92.5826 72C92.5826 83.7257 83.1432 93.23 71.5 93.23ZM93.4161 54.8921C90.6951 54.8921 88.4891 52.6707 88.4891 49.9307C88.4891 47.1907 90.6951 44.9692 93.4161 44.9692C96.137 44.9692 98.343 47.1907 98.343 49.9307C98.342 52.6707 96.137 54.8921 93.4161 54.8921Z" fill="#EE7A45"/>
<path d="M71.5 0C32.0177 0 0 32.2416 0 72C0 111.758 32.0177 144 71.5 144C110.982 144 143 111.758 143 72C143 32.2416 110.982 0 71.5 0ZM112.309 89.0453C112.11 93.4464 111.415 96.4512 110.401 99.0813C108.268 104.635 103.908 109.025 98.3932 111.173C95.7825 112.195 92.7975 112.893 88.428 113.094C84.0498 113.295 82.6511 113.344 71.5011 113.344C60.3499 113.344 58.9524 113.295 54.5731 113.094C50.2036 112.893 47.2186 112.195 44.6079 111.173C41.8673 110.135 39.3863 108.508 37.3352 106.404C35.247 104.339 33.6313 101.84 32.6003 99.0813C31.5856 96.4523 30.8907 93.4464 30.6921 89.0464C30.4903 84.6365 30.4434 83.228 30.4434 72C30.4434 60.772 30.4903 59.3635 30.691 54.9547C30.8896 50.5536 31.5835 47.5488 32.5981 44.9187C33.6291 42.16 35.246 39.6606 37.3352 37.5963C39.3852 35.4924 41.8673 33.8654 44.6068 32.8271C47.2186 31.8054 50.2025 31.1067 54.5731 30.9056C58.9513 30.7046 60.3499 30.6562 71.5 30.6562C82.6501 30.6562 84.0487 30.7046 88.4269 30.9067C92.7975 31.1067 95.7814 31.8054 98.3932 32.826C101.133 33.8643 103.615 35.4924 105.666 37.5963C107.754 39.6617 109.371 42.16 110.401 44.9187C111.417 47.5488 112.11 50.5536 112.31 54.9547C112.51 59.3635 112.557 60.772 112.557 72C112.557 83.228 112.51 84.6365 112.309 89.0453Z" fill="#EE7A45"/>
</g>
<defs>
<clipPath id="clip0_2209_6288">
<rect width="143" height="144" fill="white"/>
</clipPath>
</defs>
</svg>
