<svg width="1454" height="240" viewBox="0 0 1454 240" fill="none" xmlns="http://www.w3.org/2000/svg">
	<g clip-path="url(#clip0_1961_37756)">
		<path d="M326.727 94.2152C326.727 94.2152 320.605 55.9449 348.79 50.6969C376.974 45.4488 395.985 44.8574 403.946 67.6422C411.907 90.427 403.946 94.2152 403.946 94.2152H326.727Z" fill="#FFD170" />
		<path d="M121.674 135.664C121.674 135.664 114.449 100.554 139.508 95.2685C164.567 89.9835 191.722 86.3431 198.801 109.128C205.879 131.913 180.875 141.097 180.875 141.097L121.674 135.664Z" fill="#F2A6D6" />
		<path d="M968.634 54.2448H932.838C921.049 54.2448 911.493 63.8502 911.493 75.6991V113.84C911.493 125.689 921.049 135.294 932.838 135.294H968.634C980.423 135.294 989.98 125.689 989.98 113.84V75.6991C989.98 63.8502 980.423 54.2448 968.634 54.2448Z" fill="#9FC65F" />
		<path d="M1199.28 50.6969H1161.46C1148.67 50.6969 1138.29 61.1214 1138.29 73.9806V116.427C1138.29 129.286 1148.67 139.711 1161.46 139.711H1199.28C1212.07 139.711 1222.44 129.286 1222.44 116.427V73.9806C1222.44 61.1214 1212.07 50.6969 1199.28 50.6969Z" fill="#9FB5F9" />
		<path d="M-0.000938182 95.3424C-0.0418066 89.2028 0.240509 83.0653 0.844801 76.9557C1.27487 72.2229 2.26231 67.5582 3.78644 63.0594C5.02934 59.4302 6.97239 56.0832 9.5043 53.21C12.0471 50.4775 15.1275 48.3064 18.5499 46.8347C22.6959 45.0788 27.0643 43.9096 31.53 43.3606C37.3464 42.6156 43.2065 42.2699 49.0696 42.3258C56.4772 42.1709 63.8785 42.859 71.1321 44.377C76.1126 45.3766 80.791 47.5347 84.7924 50.6783C88.1259 53.4921 90.5566 57.234 91.7789 61.4332C93.1637 66.4934 93.82 71.7268 93.7277 76.9741H80.3064C80.3064 74.8121 80.3064 72.7979 80.1777 70.9315C80.105 69.2011 79.7638 67.4927 79.1665 65.8682C78.5576 64.3194 77.6159 62.9249 76.4087 61.7843C74.8449 60.419 73.0172 59.3935 71.0402 58.7722C68.1735 57.8377 65.2146 57.2181 62.2152 56.9243C52.8444 56.0342 43.4085 56.0899 34.0488 57.0906C30.5862 57.4513 27.1932 58.3102 23.9736 59.6407C21.5478 60.6553 19.4301 62.2931 17.8329 64.3899C16.298 66.6124 15.2341 69.1283 14.7074 71.7815C13.9913 75.1231 13.6033 78.5272 13.5491 81.945C13.4388 85.8503 13.3836 90.3345 13.3836 95.3978C13.3836 100.461 13.4388 104.865 13.5491 108.61C13.6059 111.985 13.9939 115.346 14.7074 118.645C15.2431 121.244 16.3072 123.703 17.8329 125.87C19.4404 127.956 21.5551 129.592 23.9736 130.619C27.1838 131.988 30.5798 132.866 34.0488 133.225C39.0352 133.792 44.0516 134.051 49.0696 134.001C53.4608 134.045 57.8507 133.823 62.2152 133.335C65.216 132.999 68.1736 132.348 71.0402 131.395C73.0241 130.745 74.8522 129.688 76.4087 128.291C77.6286 127.096 78.5704 125.644 79.1665 124.04C79.763 122.333 80.1038 120.545 80.1777 118.737C80.2696 116.889 80.3064 114.709 80.3064 112.473H93.691C93.7798 117.847 93.1239 123.209 91.7421 128.402C90.5578 132.712 88.1261 136.571 84.7557 139.489C80.7695 142.684 76.089 144.887 71.0953 145.92C63.8471 147.478 56.4434 148.185 49.0329 148.026C43.1686 148.081 37.3077 147.723 31.4932 146.955C27.0292 146.397 22.662 145.228 18.5131 143.481C15.0859 142.009 12.0043 139.831 9.46755 137.087C6.94786 134.219 5.006 130.886 3.74969 127.274C2.2244 122.839 1.2367 118.236 0.808023 113.563C0.213778 107.508 -0.0562685 101.426 -0.000938182 95.3424Z" fill="#222222" />
		<path d="M195.271 132.19C194.455 134.069 193.398 135.833 192.128 137.438C190.655 139.62 188.783 141.501 186.612 142.982C183.765 144.78 180.61 146.033 177.309 146.677C172.281 147.689 167.157 148.142 162.031 148.026C154.821 148.121 147.618 147.583 140.501 146.419C135.396 145.62 130.468 143.932 125.94 141.429C122.398 139.438 119.51 136.452 117.63 132.837C115.797 128.929 114.903 124.644 115.019 120.326C114.933 115.97 115.415 111.621 116.453 107.391C117.248 104.186 118.667 101.172 120.627 98.5208C122.401 96.1923 124.677 94.2972 127.282 92.977C130.091 91.5558 133.078 90.5239 136.162 89.9095C139.755 89.1712 143.401 88.7324 147.065 88.5975C151.018 88.4127 155.21 88.3388 159.677 88.3388C165.008 88.2705 170.336 88.604 175.618 89.3366C179.186 89.8283 182.696 90.6764 186.097 91.8683C188.317 92.6277 190.403 93.7381 192.275 95.1575C193.431 96.0768 194.441 97.1672 195.271 98.3914C195.271 91.8683 195.051 86.2876 194.61 81.7602C194.297 77.8438 193.57 73.972 192.44 70.2107C191.654 67.5136 190.342 65.0008 188.579 62.8191C187.004 60.9879 185.01 59.5676 182.769 58.6798C180.191 57.666 177.477 57.0432 174.717 56.8318C171.646 56.5731 168.153 56.4438 164.2 56.4438C158.059 56.4438 152.985 56.6286 148.94 57.0166C145.634 57.2237 142.385 57.9793 139.325 59.2526C137.186 60.1614 135.421 61.7787 134.324 63.8354C133.254 66.2442 132.751 68.8684 132.853 71.5043H119.487C119.362 66.9027 120.13 62.3207 121.748 58.0145C123.279 54.3211 125.904 51.1916 129.268 49.0521C133.502 46.4763 138.2 44.7681 143.094 44.0258C150.069 42.8691 157.132 42.3373 164.2 42.4366C171.205 42.2868 178.195 43.1455 184.957 44.9867C190.338 46.4868 195.135 49.6004 198.71 53.9121C202.568 58.95 205.172 64.8425 206.303 71.0977C208.025 80.1077 208.808 89.2737 208.638 98.4469V146.068H195.271V132.19ZM164.2 134.038C169.123 134.108 174.043 133.762 178.908 133.003C182.255 132.529 185.495 131.479 188.487 129.898C190.685 128.737 192.48 126.933 193.635 124.724C194.706 122.464 195.235 119.983 195.18 117.48C195.236 115.007 194.599 112.567 193.341 110.44C191.891 108.3 189.826 106.656 187.421 105.728C183.887 104.328 180.173 103.444 176.39 103.104C170.791 102.494 165.161 102.217 159.53 102.272C152.856 102.272 147.451 102.42 143.351 102.716C140.086 102.81 136.863 103.479 133.828 104.693C132.814 105.118 131.895 105.743 131.125 106.53C130.355 107.317 129.748 108.25 129.342 109.276C128.481 111.921 128.095 114.699 128.202 117.48C128.112 120.333 128.522 123.179 129.415 125.888C129.873 127.018 130.549 128.046 131.404 128.912C132.259 129.777 133.277 130.465 134.398 130.933C137.839 132.376 141.503 133.207 145.226 133.391C150.135 133.908 156.405 134.112 164.2 134.112V134.038Z" fill="#222222" />
		<path d="M299.461 78.0274C299.506 74.5265 299.26 71.0279 298.725 67.5683C298.353 65.0223 297.135 62.6777 295.269 60.9158C292.964 59.0259 290.183 57.8167 287.234 57.4232C282.433 56.6487 277.572 56.3086 272.71 56.4069C267.733 56.2529 262.764 56.9209 258.002 58.3842C254.634 59.449 251.591 61.3566 249.158 63.9279C247.003 66.3738 245.504 69.331 244.801 72.5206C244.011 76.1622 243.629 79.8812 243.661 83.6081V146.012H230.276V45.2085H243.661V61.2299C244.25 59.1222 245.116 57.1026 246.235 55.2242C247.697 52.8078 249.644 50.7245 251.953 49.1076C254.967 46.9722 258.317 45.3605 261.862 44.34C266.811 42.9272 271.943 42.2731 277.086 42.3997C282.844 42.2242 288.591 43.0111 294.092 44.7281C298.053 46.013 301.584 48.3727 304.296 51.5469C306.825 54.7789 308.523 58.5867 309.242 62.6343C310.148 67.6889 310.579 72.8178 310.529 77.9535L299.461 78.0274Z" fill="#222222" />
		<path d="M370.135 147.952C362.501 148.09 354.878 147.309 347.429 145.624C341.669 144.472 336.365 141.664 332.161 137.541C327.957 133.417 325.035 128.156 323.749 122.396C321.808 114.542 320.917 106.463 321.102 98.3729C320.914 89.1837 321.802 80.0042 323.749 71.0238C325.092 64.6664 328.014 58.7542 332.243 53.8382C336.343 49.4531 341.617 46.3534 347.429 44.9128C354.855 43.0702 362.488 42.2128 370.135 42.3627C375.701 42.2781 381.257 42.8675 386.682 44.1182C390.938 45.1094 394.993 46.8284 398.669 49.2C401.877 51.3063 404.623 54.0478 406.741 57.2569C408.779 60.3426 410.416 63.6773 411.613 67.1801C412.905 71.1404 413.725 75.2405 414.058 79.3948C414.499 84.0516 414.72 88.9793 414.72 94.1781L413.598 99.7219H334.394C334.264 105.934 334.882 112.138 336.233 118.201C337.016 122.282 339.124 125.987 342.226 128.734C345.453 131.126 349.266 132.589 353.258 132.966C358.853 133.615 364.484 133.911 370.117 133.853C375.199 133.901 380.279 133.692 385.34 133.225C388.645 132.996 391.885 132.196 394.919 130.859C397.1 129.892 398.866 128.176 399.901 126.018C400.935 123.45 401.417 120.692 401.317 117.924H414.702C414.82 122.651 414.053 127.359 412.44 131.802C410.941 135.582 408.323 138.807 404.939 141.041C400.75 143.679 396.071 145.433 391.187 146.197C384.237 147.421 377.191 148.009 370.135 147.952ZM370.135 56.4068C365.686 56.4068 361.696 56.5362 358.185 56.7579C355.074 56.9272 351.991 57.4416 348.992 58.2917C346.558 58.988 344.28 60.1486 342.282 61.7103C340.457 63.1505 338.927 64.9328 337.777 66.9584C336.444 69.6121 335.597 72.4851 335.277 75.4403C334.695 79.8072 334.425 84.2103 334.468 88.6159H401.335C401.503 83.2085 400.921 77.8039 399.607 72.5576C398.597 68.9469 396.7 65.6491 394.092 62.9669C391.413 60.3699 388.062 58.5832 384.421 57.8112C379.728 56.7956 374.935 56.3244 370.135 56.4068Z" fill="#222222" />
		<path d="M606.037 146.031H592.671V89.1335C592.752 83.9753 592.457 78.8181 591.788 73.7034C591.368 70.0642 590.047 66.5889 587.946 63.5953C585.884 60.9259 583.032 58.9844 579.801 58.0516C575.306 56.7743 570.644 56.1948 565.975 56.333C560.751 56.1952 555.536 56.8619 550.513 58.3103C546.933 59.355 543.658 61.2573 540.971 63.854C538.646 66.2276 536.98 69.1707 536.136 72.3914C535.186 76.0086 534.729 79.7383 534.775 83.4789V145.975H521.39V45.2086H534.793V61.1376C534.793 60.9528 535.051 60.3799 535.418 59.3821C535.939 58.125 536.606 56.9341 537.404 55.8341C538.554 54.2349 539.859 52.7553 541.302 51.4176C543.225 49.6612 545.385 48.1868 547.718 47.038C550.747 45.5615 553.937 44.4452 557.224 43.7118C561.573 42.7744 566.013 42.3343 570.461 42.3997C574.841 42.3472 579.215 42.7434 583.515 43.5824C586.837 44.2363 590.034 45.4218 592.983 47.0934C595.502 48.54 597.688 50.5046 599.4 52.8589C601.1 55.2878 602.426 57.9603 603.334 60.7865C604.374 58.8206 605.606 56.9636 607.011 55.2427C609.003 52.8581 611.369 50.8169 614.016 49.2001C617.519 47.0533 621.307 45.417 625.268 44.34C630.665 42.9103 636.234 42.2447 641.815 42.3628C646.436 42.2907 651.05 42.7495 655.567 43.7302C659.025 44.4693 662.321 45.8344 665.293 47.7587C667.869 49.462 670.041 51.7142 671.654 54.3557C673.344 57.1951 674.584 60.2809 675.331 63.5029C676.247 67.3242 676.819 71.2205 677.041 75.1448C677.323 79.4319 677.464 84.0825 677.464 89.0965V145.994H664.079V89.1335C664.139 83.9986 663.826 78.8663 663.142 73.7773C662.727 70.1398 661.412 66.6646 659.318 63.6692C657.249 61.0073 654.4 59.0677 651.173 58.1255C646.678 56.8499 642.016 56.2704 637.347 56.4069C632.117 56.2692 626.896 56.936 621.867 58.3842C618.29 59.4377 615.018 61.3389 612.325 63.9279C610 66.3015 608.333 69.2445 607.489 72.4653C606.549 76.0842 606.091 79.8126 606.129 83.5527L606.037 146.031Z" fill="#222222" />
		<path d="M947.158 147.952C941.783 148.066 936.414 147.494 931.182 146.252C927.596 145.363 924.105 144.125 920.757 142.557C918.065 141.249 915.903 139.05 914.635 136.329C913.237 133.483 912.189 131.266 911.491 129.677V146.012H898.125V11.595H911.491V54.6698C912.289 53.1995 913.313 51.865 914.524 50.7153C916.346 49.0318 918.442 47.6754 920.72 46.7053C924.082 45.2714 927.599 44.2358 931.2 43.6193C944.039 41.6386 957.133 42.0835 969.809 44.9313C975.56 46.3298 980.815 49.2969 984.996 53.5056C989.183 58.0934 992.11 63.6976 993.49 69.7673C997.019 86.6017 997.019 103.991 993.49 120.825C992.115 126.869 989.186 132.445 984.996 136.994C980.803 141.168 975.549 144.102 969.809 145.476C962.393 147.259 954.782 148.091 947.158 147.952ZM947.158 133.945C951.658 133.978 956.156 133.775 960.635 133.335C963.932 133.041 967.177 132.314 970.287 131.173C972.745 130.269 974.952 128.787 976.722 126.849C978.486 124.789 979.795 122.377 980.565 119.772C981.571 116.424 982.188 112.97 982.403 109.479C982.697 105.45 982.863 100.738 982.863 95.3054C982.863 89.8726 982.697 85.1419 982.403 81.095C982.188 77.5861 981.571 74.1137 980.565 70.7466C979.791 68.1374 978.482 65.7201 976.722 63.6507C974.962 61.6792 972.755 60.164 970.287 59.2342C967.186 58.0555 963.938 57.3094 960.635 57.0167C956.156 56.5773 951.658 56.3737 947.158 56.4069C942.691 56.4069 938.738 56.5362 935.245 56.7949C932.114 57.0087 929.024 57.6298 926.052 58.6428C923.553 59.4786 921.259 60.8392 919.323 62.6343C917.351 64.5942 915.821 66.9576 914.837 69.564C913.541 73.0199 912.688 76.6278 912.3 80.3004C911.719 85.3915 911.449 90.5137 911.491 95.638C911.446 100.689 911.717 105.737 912.3 110.754C912.688 114.361 913.541 117.901 914.837 121.287C915.825 123.853 917.356 126.174 919.323 128.087C921.258 129.849 923.556 131.162 926.052 131.931C929.037 132.866 932.124 133.437 935.245 133.631C938.738 133.816 942.691 133.945 947.158 133.945Z" fill="#222222" />
		<path d="M1095.55 132.19C1094.73 134.069 1093.67 135.833 1092.4 137.438C1090.93 139.62 1089.06 141.501 1086.89 142.982C1084.04 144.78 1080.89 146.033 1077.59 146.677C1072.56 147.689 1067.43 148.142 1062.31 148.026C1055.1 148.12 1047.89 147.582 1040.78 146.419C1035.67 145.62 1030.74 143.932 1026.22 141.429C1022.69 139.42 1019.82 136.421 1017.96 132.8C1016.14 128.89 1015.24 124.606 1015.35 120.289C1015.27 115.933 1015.75 111.584 1016.79 107.354C1017.58 104.149 1019 101.135 1020.96 98.4838C1022.74 96.1598 1025.01 94.2655 1027.61 92.9401C1030.42 91.5244 1033.41 90.4928 1036.49 89.8725C1040.09 89.1343 1043.73 88.6954 1047.4 88.5605C1051.35 88.3757 1055.54 88.3018 1060.01 88.3018C1065.34 88.2334 1070.67 88.567 1075.95 89.2997C1079.52 89.7939 1083.04 90.6419 1086.45 91.8313C1088.66 92.594 1090.74 93.7042 1092.61 95.1206C1093.77 96.0346 1094.78 97.1258 1095.6 98.3544C1095.6 91.8313 1095.38 86.2506 1094.94 81.7232C1094.64 77.8056 1093.91 73.9329 1092.77 70.1738C1091.99 67.4766 1090.67 64.9638 1088.91 62.7821C1087.34 60.9509 1085.34 59.5307 1083.1 58.6428C1080.52 57.6291 1077.81 57.0063 1075.05 56.7949C1071.98 56.5362 1068.48 56.4068 1064.53 56.4068C1058.4 56.4068 1053.32 56.5978 1049.27 56.9797C1045.97 57.1888 1042.72 57.9442 1039.66 59.2157C1037.52 60.1245 1035.75 61.7417 1034.66 63.7985C1033.59 66.2072 1033.08 68.8314 1033.18 71.4673H1019.82C1019.69 66.8658 1020.46 62.2838 1022.08 57.9776C1023.61 54.2841 1026.24 51.1546 1029.6 49.0152C1033.83 46.4394 1038.53 44.7311 1043.43 43.9888C1050.4 42.8321 1057.46 42.3003 1064.53 42.3996C1071.54 42.2485 1078.53 43.1073 1085.29 44.9498C1090.67 46.4454 1095.47 49.5599 1099.04 53.8752C1102.9 58.9131 1105.5 64.8056 1106.63 71.0608C1108.36 80.0707 1109.14 89.2367 1108.97 98.4099V146.031H1095.55V132.19ZM1064.48 134.038C1069.4 134.108 1074.32 133.762 1079.18 133.003C1082.53 132.529 1085.77 131.479 1088.76 129.898C1090.96 128.737 1092.76 126.933 1093.91 124.724C1094.98 122.464 1095.51 119.983 1095.46 117.48C1095.52 115.006 1094.88 112.563 1093.62 110.44C1092.17 108.3 1090.1 106.656 1087.7 105.728C1084.16 104.328 1080.45 103.444 1076.67 103.104C1071.07 102.495 1065.45 102.217 1059.83 102.272C1053.13 102.272 1047.73 102.42 1043.63 102.716C1040.37 102.808 1037.15 103.477 1034.12 104.693C1033.1 105.114 1032.18 105.737 1031.41 106.525C1030.63 107.312 1030.03 108.247 1029.62 109.276C1028.77 111.924 1028.38 114.7 1028.48 117.48C1028.39 120.333 1028.8 123.179 1029.69 125.888C1030.17 127.047 1030.87 128.097 1031.76 128.974C1032.65 129.851 1033.71 130.536 1034.88 130.989C1038.32 132.429 1041.98 133.261 1045.71 133.446C1050.41 133.908 1056.68 134.112 1064.48 134.112V134.038Z" fill="#222222" />
		<path d="M1179.64 147.952C1174.26 148.065 1168.89 147.494 1163.65 146.252C1160.07 145.363 1156.58 144.125 1153.24 142.557C1150.52 141.268 1148.32 139.075 1147.03 136.348C1145.65 133.502 1144.6 131.284 1143.9 129.695V146.031H1130.52V11.595H1143.9V54.6698C1144.7 53.1995 1145.72 51.865 1146.93 50.7153C1148.75 49.0277 1150.85 47.6708 1153.13 46.7053C1156.49 45.2714 1160.01 44.2358 1163.61 43.6193C1176.45 41.6386 1189.54 42.0835 1202.22 44.9313C1207.97 46.3343 1213.22 49.3008 1217.41 53.5056C1221.59 58.0934 1224.52 63.6976 1225.9 69.7673C1229.43 86.6017 1229.43 103.991 1225.9 120.825C1224.53 126.869 1221.6 132.445 1217.41 136.994C1213.21 141.164 1207.96 144.098 1202.22 145.476C1194.83 147.251 1187.24 148.083 1179.64 147.952ZM1179.64 133.945C1184.14 133.978 1188.64 133.774 1193.12 133.335C1196.41 133.041 1199.65 132.314 1202.75 131.173C1205.21 130.266 1207.43 128.784 1209.21 126.849C1210.96 124.788 1212.27 122.376 1213.03 119.772C1214.04 116.424 1214.65 112.97 1214.87 109.479C1215.16 105.45 1215.31 100.738 1215.31 95.3054C1215.31 89.8726 1215.16 85.1419 1214.87 81.095C1214.65 77.586 1214.04 74.1136 1213.03 70.7467C1212.26 68.1387 1210.96 65.7214 1209.21 63.6507C1207.44 61.6822 1205.22 60.1679 1202.75 59.2342C1199.66 58.0554 1196.42 57.3092 1193.12 57.0167C1188.64 56.5778 1184.14 56.3742 1179.64 56.4069C1175.17 56.4069 1171.2 56.5362 1167.73 56.7949C1164.6 57.007 1161.51 57.6282 1158.54 58.6428C1156.04 59.4731 1153.74 60.8274 1151.81 62.6158C1149.83 64.5709 1148.3 66.9356 1147.32 69.5455C1146.02 73.0004 1145.16 76.6084 1144.77 80.2819C1144.19 85.3735 1143.93 90.4956 1143.97 95.6195C1143.92 100.67 1144.19 105.718 1144.77 110.736C1145.16 114.343 1146.02 117.884 1147.32 121.269C1148.3 123.838 1149.83 126.16 1151.81 128.069C1153.74 129.831 1156.04 131.143 1158.54 131.913C1161.52 132.849 1164.61 133.42 1167.73 133.613C1171.21 133.834 1175.18 133.945 1179.64 133.945Z" fill="#222222" />
		<path d="M1239.21 45.2086H1254.8L1290.43 134.814L1324.21 45.5227H1340.07L1299.85 146.326L1297.6 151.962C1296.52 154.734 1295.45 157.377 1294.35 159.853C1293.31 162.236 1292.02 164.502 1290.51 166.616C1287.41 170.933 1283.13 174.247 1278.19 176.152C1275.01 177.375 1271.7 178.236 1268.33 178.72C1263.86 179.372 1259.34 179.675 1254.82 179.626V165.619C1258.59 165.657 1262.35 165.441 1266.09 164.972C1268.72 164.661 1271.31 164.041 1273.79 163.124C1277.24 161.845 1280.11 159.375 1281.9 156.157C1282.75 154.697 1283.87 152.11 1283.87 152.11L1239.21 45.2086Z" fill="#222222" />
		<path d="M691.069 45.2086H706.66L742.328 134.814L776.102 45.5227H791.858L751.612 146.326L749.351 151.962C748.285 154.734 747.2 157.377 746.115 159.853C745.064 162.232 743.777 164.498 742.272 166.616C739.167 170.922 734.889 174.234 729.954 176.152C726.769 177.375 723.457 178.236 720.081 178.72C715.607 179.374 711.089 179.676 706.568 179.626V165.619C710.341 165.658 714.113 165.442 717.857 164.972C720.487 164.659 723.073 164.039 725.56 163.124C727.384 162.414 729.07 161.388 730.543 160.093C731.779 158.95 732.833 157.623 733.668 156.157C734.514 154.697 735.617 152.11 735.617 152.11L691.069 45.2086Z" fill="#222222" />
		<path d="M12.9067 228.595C10.7371 227.547 8.89826 225.916 7.5933 223.883C6.33083 221.825 5.66229 219.454 5.66229 217.037C5.66229 214.619 6.33083 212.248 7.5933 210.19C8.89939 208.162 10.7384 206.538 12.9067 205.496C15.3145 204.358 17.9497 203.789 20.6101 203.833C22.8326 203.802 25.0389 204.217 27.1002 205.053C28.9576 205.807 30.5864 207.037 31.8252 208.619L29.7293 209.968C28.6833 208.678 27.3299 207.673 25.7948 207.049C24.1462 206.389 22.3844 206.062 20.6101 206.088C18.4666 206.048 16.344 206.516 14.4143 207.455C12.6428 208.303 11.1499 209.644 10.1121 211.317C9.3076 212.588 8.77896 214.014 8.56073 215.504C8.34251 216.994 8.43962 218.513 8.8457 219.963C9.25179 221.412 9.9577 222.759 10.9173 223.915C11.8769 225.072 13.0685 226.012 14.4143 226.673C16.3469 227.604 18.4675 228.072 20.6101 228.041C22.3844 228.066 24.1462 227.74 25.7948 227.08C27.3265 226.449 28.6784 225.446 29.7293 224.16L31.8252 225.491C30.5875 227.079 28.9588 228.315 27.1002 229.076C25.0389 229.911 22.8326 230.326 20.6101 230.295C17.9459 230.336 15.3087 229.754 12.9067 228.595Z" fill="#222222" />
		<path d="M48.6653 228.595C46.5047 227.541 44.6732 225.911 43.3704 223.883C42.1208 221.831 41.4595 219.471 41.4595 217.064C41.4595 214.658 42.1208 212.298 43.3704 210.246C44.6732 208.218 46.5047 206.588 48.6653 205.533C51.0318 204.414 53.6152 203.833 56.2309 203.833C58.8466 203.833 61.43 204.414 63.7965 205.533C65.9572 206.588 67.7886 208.218 69.0915 210.246C70.3411 212.298 71.0024 214.658 71.0024 217.064C71.0024 219.471 70.3411 221.831 69.0915 223.883C67.7886 225.911 65.9572 227.541 63.7965 228.595C61.43 229.715 58.8466 230.296 56.2309 230.296C53.6152 230.296 51.0318 229.715 48.6653 228.595ZM62.3257 226.655C64.0595 225.756 65.525 224.41 66.5727 222.756C67.5832 221.031 68.1161 219.066 68.1161 217.064C68.1161 215.063 67.5832 213.098 66.5727 211.373C65.525 209.719 64.0595 208.373 62.3257 207.474C60.4222 206.561 58.3399 206.088 56.2309 206.088C54.122 206.088 52.0397 206.561 50.1362 207.474C48.4023 208.373 46.9368 209.719 45.8891 211.373C44.8787 213.098 44.3458 215.063 44.3458 217.064C44.3458 219.066 44.8787 221.031 45.8891 222.756C46.9368 224.41 48.4023 225.756 50.1362 226.655C52.0397 227.568 54.122 228.041 56.2309 228.041C58.3399 228.041 60.4222 227.568 62.3257 226.655Z" fill="#222222" />
		<path d="M109.007 223.107C109.044 224.147 108.803 225.177 108.308 226.091C107.813 227.004 107.083 227.767 106.194 228.3C103.618 229.686 100.709 230.326 97.7921 230.148H84.9224V204.092H97.3876C100.069 203.952 102.738 204.546 105.11 205.811C105.975 206.3 106.693 207.014 107.189 207.88C107.684 208.745 107.937 209.728 107.922 210.726C107.961 212.144 107.439 213.52 106.47 214.551C105.358 215.65 103.953 216.401 102.425 216.713C106.813 217.342 109.007 219.473 109.007 223.107ZM87.7721 215.993H97.2222C99.2503 216.112 101.272 215.671 103.069 214.718C103.713 214.349 104.245 213.809 104.605 213.157C104.965 212.505 105.139 211.767 105.11 211.022C105.147 210.278 104.978 209.538 104.621 208.885C104.264 208.232 103.733 207.692 103.087 207.326C101.274 206.406 99.2501 205.985 97.2222 206.106H87.7169L87.7721 215.993ZM106.157 223.07C106.208 222.309 106.056 221.548 105.717 220.866C105.377 220.184 104.863 219.605 104.227 219.19C102.364 218.22 100.271 217.785 98.1782 217.933H87.7537V228.115H97.7186C103.357 228.066 106.176 226.359 106.176 222.996L106.157 223.07Z" fill="#222222" />
		<path d="M146.2 205.533C148.34 206.588 150.152 208.211 151.44 210.227C152.679 212.294 153.333 214.661 153.333 217.074C153.333 219.486 152.679 221.853 151.44 223.92C150.16 225.942 148.346 227.567 146.2 228.614C143.879 229.761 141.321 230.337 138.736 230.295C136.28 230.334 133.852 229.776 131.657 228.669C129.625 227.663 127.917 226.1 126.73 224.16V239.775H123.899V204.037H126.638V210.172C127.808 208.17 129.524 206.548 131.584 205.496C133.805 204.367 136.265 203.796 138.754 203.833C141.335 203.801 143.887 204.383 146.2 205.533ZM144.674 226.655C146.428 225.771 147.909 224.423 148.958 222.756C149.968 221.031 150.501 219.066 150.501 217.064C150.501 215.063 149.968 213.098 148.958 211.373C147.909 209.706 146.428 208.358 144.674 207.474C142.767 206.561 140.682 206.087 138.57 206.087C136.458 206.087 134.373 206.561 132.466 207.474C130.732 208.373 129.267 209.718 128.219 211.373C127.209 213.098 126.676 215.063 126.676 217.064C126.676 219.066 127.209 221.031 128.219 222.756C129.267 224.41 130.732 225.756 132.466 226.655C134.373 227.568 136.458 228.042 138.57 228.042C140.682 228.042 142.767 227.568 144.674 226.655Z" fill="#222222" />
		<path d="M192.532 217.656H167.087C167.159 219.603 167.798 221.485 168.925 223.07C170.047 224.685 171.585 225.963 173.375 226.766C177.077 228.352 181.236 228.484 185.031 227.136C186.601 226.577 188.014 225.645 189.149 224.419L190.785 226.064C189.437 227.473 187.782 228.548 185.95 229.205C181.322 230.867 176.232 230.655 171.757 228.614C169.563 227.574 167.693 225.951 166.351 223.92C165.037 221.888 164.358 219.507 164.402 217.083C164.359 214.702 164.984 212.357 166.207 210.317C167.43 208.277 169.201 206.626 171.315 205.552C173.565 204.445 176.036 203.87 178.541 203.87C181.045 203.87 183.517 204.445 185.766 205.552C187.842 206.621 189.59 208.237 190.822 210.227C192.053 212.271 192.69 214.62 192.661 217.009L192.532 217.656ZM172.878 207.252C171.263 208.026 169.883 209.217 168.878 210.705C167.873 212.192 167.28 213.922 167.16 215.716H189.811C189.726 213.923 189.133 212.191 188.101 210.726C187.078 209.252 185.699 208.063 184.093 207.271C182.346 206.424 180.425 206 178.486 206.032C176.548 206.001 174.629 206.418 172.878 207.252Z" fill="#222222" />
		<path d="M238.79 204.037V230.092H236.179V208.028L223.309 226.747H222.004L209.134 208.084V230.092H206.524V204.037H209.373L222.74 223.754L236.161 204.037H238.79Z" fill="#222222" />
		<path d="M280.911 217.656H255.484C255.548 219.604 256.188 221.489 257.322 223.07C258.439 224.69 259.979 225.969 261.772 226.766C265.474 228.352 269.633 228.484 273.428 227.136C274.993 226.577 276.4 225.645 277.528 224.419L279.182 226.064C277.83 227.477 276.168 228.552 274.329 229.205C269.707 230.866 264.623 230.654 260.154 228.614C257.96 227.574 256.09 225.951 254.748 223.92C253.429 221.889 252.744 219.508 252.781 217.083C252.748 214.704 253.378 212.363 254.6 210.326C255.822 208.288 257.586 206.634 259.694 205.552C261.948 204.45 264.422 203.878 266.929 203.878C269.435 203.878 271.909 204.45 274.163 205.552C276.232 206.624 277.973 208.24 279.201 210.227C280.44 212.267 281.078 214.619 281.039 217.009L280.911 217.656ZM261.257 207.252C259.65 208.027 258.274 209.212 257.267 210.689C256.274 212.189 255.679 213.919 255.539 215.716H278.19C278.102 213.926 277.516 212.197 276.498 210.726C275.472 209.247 274.086 208.058 272.472 207.271C270.725 206.422 268.804 205.998 266.864 206.032C264.927 206.003 263.009 206.42 261.257 207.252Z" fill="#222222" />
		<path d="M294.957 204.037H297.788V215.993H317.847V204.111H320.678V230.166H317.847V218.192H297.807V230.166H294.975L294.957 204.037Z" fill="#222222" />
		<path d="M337.648 204.037H340.479V215.993H360.519V204.111H363.351V230.166H360.519V218.192H340.479V230.166H337.648V204.037Z" fill="#222222" />
		<path d="M384.566 228.596C382.406 227.541 380.574 225.911 379.271 223.883C378.008 221.836 377.338 219.474 377.338 217.065C377.338 214.655 378.008 212.293 379.271 210.246C380.574 208.218 382.406 206.588 384.566 205.534C386.93 204.414 389.51 203.833 392.123 203.833C394.735 203.833 397.316 204.414 399.679 205.534C401.84 206.588 403.671 208.218 404.974 210.246C406.238 212.293 406.907 214.655 406.907 217.065C406.907 219.474 406.238 221.836 404.974 223.883C403.671 225.911 401.84 227.541 399.679 228.596C397.316 229.715 394.735 230.296 392.123 230.296C389.51 230.296 386.93 229.715 384.566 228.596ZM398.208 226.655C399.951 225.769 401.42 224.421 402.455 222.756C403.479 221.036 404.02 219.069 404.02 217.065C404.02 215.06 403.479 213.093 402.455 211.373C401.42 209.708 399.951 208.36 398.208 207.474C396.308 206.562 394.229 206.088 392.123 206.088C390.017 206.088 387.937 206.562 386.037 207.474C384.294 208.36 382.825 209.708 381.79 211.373C380.766 213.093 380.226 215.06 380.226 217.065C380.226 219.069 380.766 221.036 381.79 222.756C382.825 224.421 384.294 225.769 386.037 226.655C387.937 227.567 390.017 228.041 392.123 228.041C394.229 228.041 396.308 227.567 398.208 226.655Z" fill="#222222" />
		<path d="M446.083 217.656H420.657C420.721 219.604 421.361 221.489 422.495 223.07C423.61 224.685 425.142 225.963 426.926 226.766C430.634 228.353 434.8 228.485 438.601 227.136C440.166 226.577 441.573 225.645 442.701 224.419L444.337 226.064C442.995 227.481 441.338 228.557 439.502 229.205C434.879 230.866 429.796 230.654 425.326 228.614C423.124 227.58 421.248 225.956 419.903 223.92C418.597 221.884 417.919 219.505 417.954 217.083C417.91 214.702 418.536 212.357 419.759 210.317C420.981 208.277 422.752 206.626 424.867 205.552C427.121 204.45 429.595 203.878 432.101 203.878C434.608 203.878 437.082 204.45 439.336 205.552C441.405 206.624 443.146 208.24 444.374 210.227C445.613 212.267 446.251 214.619 446.212 217.009L446.083 217.656ZM426.429 207.252C424.823 208.027 423.447 209.212 422.44 210.689C421.439 212.185 420.843 213.918 420.712 215.716H443.362C443.275 213.926 442.689 212.197 441.671 210.726C440.636 209.256 439.252 208.068 437.645 207.271C435.898 206.422 433.977 205.998 432.037 206.032C430.1 206.003 428.181 206.42 426.429 207.252Z" fill="#222222" />
		<path d="M507.216 227.893V236.578H504.55V230.092H476.604V236.578H473.883V227.893H475.721C477.707 227.801 479.086 226.415 479.821 223.772C480.699 220.136 481.222 216.423 481.384 212.685L481.77 204.111H502.564V227.967L507.216 227.893ZM482.763 222.645C482.646 223.687 482.312 224.693 481.783 225.597C481.254 226.501 480.542 227.283 479.693 227.893H499.622V206.273H484.234L483.884 212.777C483.785 216.091 483.416 219.392 482.781 222.645H482.763Z" fill="#222222" />
		<path d="M524.59 228.596C522.429 227.541 520.598 225.911 519.295 223.883C518.031 221.836 517.362 219.474 517.362 217.065C517.362 214.655 518.031 212.293 519.295 210.246C520.598 208.218 522.429 206.588 524.59 205.534C526.953 204.414 529.534 203.833 532.146 203.833C534.759 203.833 537.339 204.414 539.703 205.534C541.871 206.576 543.705 208.209 544.998 210.246C546.261 212.293 546.931 214.655 546.931 217.065C546.931 219.474 546.261 221.836 544.998 223.883C543.705 225.92 541.871 227.553 539.703 228.596C537.339 229.715 534.759 230.296 532.146 230.296C529.534 230.296 526.953 229.715 524.59 228.596ZM538.232 226.655C539.975 225.769 541.444 224.421 542.479 222.756C543.503 221.036 544.043 219.069 544.043 217.065C544.043 215.06 543.503 213.093 542.479 211.373C541.444 209.708 539.975 208.36 538.232 207.474C536.332 206.562 534.252 206.088 532.146 206.088C530.04 206.088 527.961 206.562 526.061 207.474C524.327 208.373 522.862 209.719 521.814 211.373C520.79 213.093 520.249 215.06 520.249 217.065C520.249 219.069 520.79 221.036 521.814 222.756C522.862 224.41 524.327 225.756 526.061 226.655C527.961 227.567 530.04 228.041 532.146 228.041C534.252 228.041 536.332 227.567 538.232 226.655Z" fill="#222222" />
		<path d="M600.668 204.037V230.092H560.919V204.037H563.75V227.893H579.433V204.037H582.264V227.893H597.836V204.037H600.668Z" fill="#222222" />
		<path d="M627.677 218.007H620.489V230.092H617.657V204.037H620.489V215.863H627.677L638.837 204.037H641.945L629.939 216.658L642.809 230.092H639.407L627.677 218.007Z" fill="#222222" />
		<path d="M657.718 228.596C655.55 227.553 653.715 225.92 652.423 223.883C651.159 221.836 650.489 219.474 650.489 217.065C650.489 214.655 651.159 212.293 652.423 210.246C653.715 208.209 655.55 206.576 657.718 205.534C660.081 204.414 662.661 203.833 665.274 203.833C667.887 203.833 670.467 204.414 672.831 205.534C674.991 206.588 676.823 208.218 678.126 210.246C679.389 212.293 680.059 214.655 680.059 217.065C680.059 219.474 679.389 221.836 678.126 223.883C676.823 225.911 674.991 227.541 672.831 228.596C670.467 229.715 667.887 230.296 665.274 230.296C662.661 230.296 660.081 229.715 657.718 228.596ZM671.36 226.655C673.094 225.756 674.559 224.41 675.607 222.756C676.63 221.036 677.171 219.069 677.171 217.065C677.171 215.06 676.63 213.093 675.607 211.373C674.559 209.719 673.094 208.373 671.36 207.474C669.459 206.562 667.38 206.088 665.274 206.088C663.168 206.088 661.089 206.562 659.189 207.474C657.445 208.36 655.977 209.708 654.942 211.373C653.918 213.093 653.377 215.06 653.377 217.065C653.377 219.069 653.918 221.036 654.942 222.756C655.977 224.421 657.445 225.769 659.189 226.655C661.089 227.567 663.168 228.041 665.274 228.041C667.38 228.041 669.459 227.567 671.36 226.655Z" fill="#222222" />
		<path d="M717.03 204.037V230.092H714.199V206.273H698.792L698.424 213.221C698.27 216.251 697.932 219.268 697.413 222.257C697.079 224.369 696.289 226.381 695.096 228.152C694.583 228.873 693.899 229.455 693.106 229.845C692.313 230.236 691.437 230.422 690.555 230.388C689.736 230.356 688.923 230.238 688.128 230.037L688.404 227.893C688.85 228.003 689.306 228.071 689.764 228.096C690.507 228.133 691.244 227.96 691.894 227.597C692.543 227.235 693.079 226.697 693.441 226.045C694.336 224.48 694.917 222.753 695.151 220.963C695.445 218.931 695.685 216.288 695.887 213.017L696.402 204.037H717.03Z" fill="#222222" />
		<path d="M754.224 215.641C755.174 216.325 755.937 217.239 756.442 218.299C756.947 219.359 757.177 220.53 757.11 221.703C757.176 222.932 756.931 224.159 756.397 225.267C755.864 226.376 755.059 227.33 754.058 228.041C751.387 229.671 748.276 230.42 745.16 230.185L734.018 230.092V204.037H736.85V213.424L745.84 213.516C748.784 213.356 751.707 214.097 754.224 215.641ZM751.907 226.6C752.678 226.051 753.296 225.313 753.702 224.455C754.107 223.598 754.287 222.65 754.224 221.703C754.283 220.793 754.106 219.884 753.709 219.064C753.313 218.244 752.711 217.542 751.962 217.027C749.867 215.869 747.494 215.313 745.105 215.42H736.85V228.152L745.105 228.244C747.487 228.414 749.863 227.839 751.907 226.6Z" fill="#222222" />
		<path d="M770.127 204.037H772.959V215.993H793.017V204.111H795.867V230.166H793.036V218.192H772.904V230.166H770.127V204.037Z" fill="#222222" />
		<path d="M816.992 228.596C814.831 227.541 813 225.911 811.697 223.883C810.433 221.836 809.763 219.474 809.763 217.065C809.763 214.655 810.433 212.293 811.697 210.246C813 208.218 814.831 206.588 816.992 205.534C819.355 204.414 821.935 203.833 824.548 203.833C827.161 203.833 829.741 204.414 832.105 205.534C834.273 206.576 836.107 208.209 837.4 210.246C838.663 212.293 839.333 214.655 839.333 217.065C839.333 219.474 838.663 221.836 837.4 223.883C836.107 225.92 834.273 227.553 832.105 228.596C829.741 229.715 827.161 230.296 824.548 230.296C821.935 230.296 819.355 229.715 816.992 228.596ZM830.634 226.655C832.377 225.769 833.846 224.421 834.881 222.756C835.904 221.036 836.445 219.069 836.445 217.065C836.445 215.06 835.904 213.093 834.881 211.373C833.846 209.708 832.377 208.36 830.634 207.474C828.733 206.562 826.654 206.088 824.548 206.088C822.442 206.088 820.363 206.562 818.463 207.474C816.742 208.379 815.29 209.724 814.252 211.373C813.229 213.093 812.688 215.06 812.688 217.065C812.688 219.069 813.229 221.036 814.252 222.756C815.3 224.41 816.766 225.756 818.499 226.655C820.4 227.567 822.479 228.041 824.585 228.041C826.691 228.041 828.77 227.567 830.67 226.655H830.634Z" fill="#222222" />
		<path d="M878.6 217.656H853.081C853.145 219.604 853.785 221.489 854.92 223.07C856.037 224.69 857.576 225.969 859.369 226.766C863.071 228.352 867.231 228.484 871.025 227.136C872.591 226.577 873.998 225.645 875.125 224.419L876.78 226.064C875.428 227.477 873.765 228.552 871.926 229.205C867.304 230.866 862.22 230.654 857.751 228.614C855.557 227.574 853.688 225.951 852.346 223.92C851.026 221.889 850.341 219.508 850.379 217.083C850.346 214.704 850.976 212.363 852.197 210.326C853.419 208.288 855.184 206.634 857.291 205.552C859.546 204.45 862.019 203.878 864.526 203.878C867.033 203.878 869.506 204.45 871.761 205.552C873.83 206.624 875.571 208.24 876.798 210.227C878.038 212.267 878.675 214.619 878.637 217.009L878.6 217.656ZM858.964 207.252C857.349 208.021 855.966 209.207 854.956 210.689C853.964 212.189 853.369 213.919 853.228 215.716H875.879C875.792 213.926 875.206 212.197 874.188 210.726C873.161 209.247 871.775 208.058 870.161 207.271C868.414 206.422 866.494 205.998 864.554 206.032C862.591 205.986 860.645 206.404 858.873 207.252H858.964Z" fill="#222222" />
		<path d="M916.088 228.596C913.92 227.553 912.085 225.92 910.793 223.883C909.529 221.836 908.859 219.474 908.859 217.065C908.859 214.655 909.529 212.293 910.793 210.246C912.085 208.209 913.92 206.576 916.088 205.534C918.451 204.414 921.031 203.833 923.644 203.833C926.257 203.833 928.837 204.414 931.2 205.534C933.361 206.588 935.193 208.218 936.495 210.246C937.759 212.293 938.429 214.655 938.429 217.065C938.429 219.474 937.759 221.836 936.495 223.883C935.193 225.911 933.361 227.541 931.2 228.596C928.837 229.715 926.257 230.296 923.644 230.296C921.031 230.296 918.451 229.715 916.088 228.596ZM929.73 226.655C931.463 225.756 932.929 224.41 933.977 222.756C935 221.036 935.541 219.069 935.541 217.065C935.541 215.06 935 213.093 933.977 211.373C932.929 209.719 931.463 208.373 929.73 207.474C927.829 206.562 925.75 206.088 923.644 206.088C921.538 206.088 919.459 206.562 917.559 207.474C915.815 208.36 914.347 209.708 913.312 211.373C912.288 213.093 911.747 215.06 911.747 217.065C911.747 219.069 912.288 221.036 913.312 222.756C914.347 224.421 915.815 225.769 917.559 226.655C919.459 227.567 921.538 228.041 923.644 228.041C925.75 228.041 927.829 227.567 929.73 226.655Z" fill="#222222" />
		<path d="M973.432 206.051C975.488 207.066 977.225 208.633 978.451 210.578C979.693 212.583 980.332 214.906 980.289 217.268C980.34 219.645 979.706 221.986 978.463 224.009C977.22 226.032 975.422 227.65 973.285 228.669C970.932 229.818 968.343 230.394 965.728 230.351C962.823 230.441 959.95 229.712 957.436 228.244C955.148 226.837 953.335 224.77 952.233 222.313C950.968 219.486 950.34 216.412 950.395 213.313C950.294 210.011 950.837 206.722 951.994 203.63C952.99 201.172 954.685 199.064 956.866 197.569C959.415 195.94 962.247 194.812 965.213 194.243L978.304 191.452L978.763 193.799L966.298 196.386C963.675 196.87 961.156 197.808 958.852 199.158C956.969 200.355 955.479 202.085 954.568 204.129C953.542 206.681 953.041 209.416 953.097 212.167C954.074 209.783 955.806 207.789 958.025 206.494C960.473 205.084 963.256 204.369 966.078 204.425C968.622 204.376 971.142 204.933 973.432 206.051ZM971.777 226.803C973.482 225.92 974.908 224.576 975.895 222.922C976.889 221.247 977.405 219.329 977.384 217.379C977.415 215.427 976.899 213.506 975.895 211.835C974.913 210.23 973.489 208.946 971.795 208.139C969.918 207.224 967.851 206.768 965.765 206.809C963.673 206.77 961.601 207.226 959.716 208.139C958.008 208.94 956.571 210.224 955.579 211.835C954.581 213.507 954.071 215.429 954.109 217.379C954.082 219.327 954.591 221.246 955.579 222.922C956.568 224.581 958.002 225.926 959.716 226.803C961.597 227.715 963.658 228.188 965.747 228.188C967.835 228.188 969.896 227.715 971.777 226.803Z" fill="#222222" />
		<path d="M1016.67 205.533C1018.81 206.588 1020.63 208.211 1021.91 210.227C1023.15 212.294 1023.81 214.661 1023.81 217.074C1023.81 219.486 1023.15 221.854 1021.91 223.92C1020.63 225.943 1018.82 227.567 1016.67 228.614C1014.35 229.761 1011.78 230.337 1009.19 230.295C1006.74 230.332 1004.31 229.774 1002.11 228.669C1000.08 227.658 998.377 226.096 997.185 224.16V239.775H994.428V204.037H997.149V210.172C998.331 208.173 1000.05 206.552 1002.11 205.497C1004.33 204.369 1006.78 203.798 1009.26 203.833C1011.83 203.81 1014.37 204.392 1016.67 205.533ZM1015.15 226.655C1016.9 225.77 1018.37 224.422 1019.41 222.756C1020.44 221.036 1020.98 219.069 1020.98 217.064C1020.98 215.06 1020.44 213.093 1019.41 211.373C1018.37 209.707 1016.9 208.359 1015.15 207.474C1013.25 206.531 1011.15 206.056 1009.03 206.088C1006.92 206.054 1004.83 206.529 1002.94 207.474C1001.2 208.36 999.728 209.708 998.693 211.373C997.669 213.093 997.129 215.06 997.129 217.064C997.129 219.069 997.669 221.036 998.693 222.756C999.728 224.421 1001.2 225.769 1002.94 226.655C1004.83 227.6 1006.92 228.075 1009.03 228.041C1011.15 228.073 1013.25 227.598 1015.15 226.655Z" fill="#222222" />
		<path d="M1055.91 206.31C1056.92 207.214 1057.71 208.339 1058.22 209.598C1058.73 210.857 1058.94 212.216 1058.85 213.572V230.092H1056.13V225.454C1055.14 227.028 1053.71 228.269 1052.01 229.02C1049.96 229.919 1047.73 230.354 1045.49 230.295C1042.74 230.442 1040.02 229.725 1037.71 228.244C1036.85 227.66 1036.14 226.876 1035.64 225.958C1035.14 225.04 1034.87 224.016 1034.85 222.971C1034.83 221.925 1035.05 220.89 1035.51 219.952C1035.97 219.015 1036.65 218.202 1037.49 217.582C1040 216.032 1042.95 215.326 1045.89 215.568H1056.02V213.461C1056.09 212.428 1055.92 211.393 1055.54 210.433C1055.15 209.473 1054.56 208.613 1053.8 207.917C1051.9 206.549 1049.58 205.895 1047.25 206.069C1045.33 206.062 1043.43 206.361 1041.61 206.956C1039.96 207.483 1038.43 208.297 1037.06 209.359L1035.65 207.511C1037.24 206.284 1039.04 205.363 1040.96 204.794C1043.07 204.14 1045.26 203.81 1047.47 203.815C1050.49 203.624 1053.48 204.508 1055.91 206.31ZM1052.14 226.747C1053.87 225.759 1055.23 224.236 1056.02 222.405V217.508H1045.91C1043.71 217.333 1041.52 217.822 1039.6 218.912C1038.98 219.334 1038.47 219.907 1038.13 220.579C1037.78 221.252 1037.61 222 1037.63 222.756C1037.62 223.555 1037.8 224.344 1038.18 225.047C1038.56 225.75 1039.11 226.343 1039.79 226.766C1041.62 227.853 1043.73 228.367 1045.85 228.244C1048.04 228.318 1050.22 227.802 1052.14 226.747Z" fill="#222222" />
		<path d="M1092.51 218.691C1093.09 219.172 1093.56 219.776 1093.87 220.46C1094.19 221.144 1094.36 221.89 1094.35 222.645C1094.35 223.403 1094.2 224.153 1093.9 224.849C1093.61 225.545 1093.17 226.172 1092.62 226.692C1091.31 227.961 1089.71 228.887 1087.95 229.39C1085.88 230.042 1083.72 230.366 1081.56 230.351C1079.46 230.353 1077.37 230.054 1075.36 229.464C1073.46 228.945 1071.67 228.094 1070.06 226.951L1071.2 225.103C1072.63 226.153 1074.23 226.93 1075.93 227.394C1077.72 227.919 1079.58 228.187 1081.45 228.189C1083.9 228.267 1086.33 227.727 1088.52 226.618C1089.35 226.278 1090.06 225.704 1090.58 224.967C1091.09 224.229 1091.38 223.359 1091.41 222.46C1091.41 221.675 1091.19 220.906 1090.76 220.249C1090.33 219.592 1089.72 219.076 1089 218.765C1086.99 217.786 1084.76 217.329 1082.53 217.434H1077.77V215.586H1082.42C1084.44 215.662 1086.45 215.23 1088.27 214.33C1088.93 214.059 1089.51 213.598 1089.91 213.003C1090.32 212.409 1090.55 211.707 1090.56 210.985C1090.54 210.191 1090.29 209.42 1089.85 208.765C1089.4 208.11 1088.77 207.597 1088.05 207.289C1086.04 206.33 1083.83 205.873 1081.61 205.959C1078.35 205.949 1075.12 206.722 1072.22 208.213L1071.37 206.217C1074.67 204.598 1078.29 203.763 1081.96 203.778C1084.81 203.663 1087.63 204.301 1090.16 205.626C1091.14 206.059 1091.97 206.768 1092.55 207.667C1093.14 208.566 1093.45 209.616 1093.45 210.689C1093.45 211.372 1093.3 212.046 1093.02 212.667C1092.73 213.288 1092.32 213.842 1091.81 214.293C1090.57 215.39 1089.07 216.158 1087.46 216.529C1089.32 216.743 1091.07 217.494 1092.51 218.691Z" fill="#222222" />
		<path d="M1113.12 228.595C1110.96 227.541 1109.13 225.911 1107.83 223.883C1106.58 221.831 1105.92 219.471 1105.92 217.064C1105.92 214.658 1106.58 212.298 1107.83 210.246C1109.13 208.218 1110.96 206.588 1113.12 205.533C1115.49 204.414 1118.07 203.833 1120.69 203.833C1123.31 203.833 1125.89 204.414 1128.25 205.533C1130.42 206.588 1132.25 208.218 1133.55 210.246C1134.8 212.298 1135.46 214.658 1135.46 217.064C1135.46 219.471 1134.8 221.831 1133.55 223.883C1132.25 225.911 1130.42 227.541 1128.25 228.595C1125.89 229.715 1123.31 230.296 1120.69 230.296C1118.07 230.296 1115.49 229.715 1113.12 228.595ZM1126.77 226.655C1128.51 225.769 1129.98 224.421 1131.01 222.756C1132.04 221.036 1132.58 219.069 1132.58 217.064C1132.58 215.06 1132.04 213.093 1131.01 211.373C1129.98 209.708 1128.51 208.36 1126.77 207.474C1124.87 206.562 1122.79 206.088 1120.68 206.088C1118.57 206.088 1116.49 206.562 1114.59 207.474C1112.86 208.373 1111.4 209.719 1110.35 211.373C1109.34 213.098 1108.8 215.063 1108.8 217.064C1108.8 219.066 1109.34 221.031 1110.35 222.756C1111.4 224.41 1112.86 225.756 1114.59 226.655C1116.49 227.567 1118.57 228.041 1120.68 228.041C1122.79 228.041 1124.87 227.567 1126.77 226.655Z" fill="#222222" />
		<path d="M1173.47 223.107C1173.5 224.147 1173.26 225.177 1172.77 226.09C1172.27 227.004 1171.54 227.767 1170.65 228.3C1168.08 229.686 1165.17 230.326 1162.25 230.148H1149.38V204.092H1161.83C1164.51 203.951 1167.19 204.545 1169.57 205.811C1170.44 206.293 1171.16 207.006 1171.65 207.874C1172.15 208.741 1172.39 209.728 1172.36 210.726C1172.38 211.427 1172.27 212.126 1172.02 212.782C1171.78 213.438 1171.41 214.04 1170.93 214.551C1169.81 215.646 1168.41 216.396 1166.88 216.713C1171.27 217.342 1173.47 219.473 1173.47 223.107ZM1152.23 215.993H1161.74C1163.76 216.114 1165.77 215.672 1167.56 214.718C1168.21 214.349 1168.74 213.809 1169.1 213.157C1169.46 212.505 1169.63 211.767 1169.6 211.022C1169.65 210.279 1169.48 209.54 1169.13 208.887C1168.77 208.234 1168.24 207.693 1167.6 207.326C1165.79 206.405 1163.76 205.985 1161.74 206.106H1152.23V215.993ZM1170.62 223.07C1170.67 222.309 1170.51 221.548 1170.17 220.866C1169.84 220.184 1169.32 219.605 1168.69 219.189C1166.82 218.22 1164.72 217.786 1162.62 217.933H1152.21V228.115H1162.18C1167.82 228.066 1170.63 226.359 1170.63 222.996L1170.62 223.07Z" fill="#222222" />
		<path d="M1206.52 206.31C1207.53 207.214 1208.32 208.339 1208.83 209.598C1209.34 210.857 1209.56 212.216 1209.46 213.572V230.092H1206.76V225.454C1205.76 227.025 1204.32 228.265 1202.63 229.02C1200.57 229.917 1198.35 230.353 1196.12 230.295C1193.37 230.445 1190.64 229.728 1188.32 228.244C1187.46 227.657 1186.76 226.872 1186.26 225.955C1185.76 225.037 1185.49 224.014 1185.47 222.97C1185.45 221.927 1185.68 220.893 1186.14 219.955C1186.59 219.018 1187.27 218.204 1188.1 217.582C1190.62 216.032 1193.56 215.326 1196.5 215.568H1206.63V213.461C1206.7 212.428 1206.54 211.393 1206.15 210.433C1205.77 209.473 1205.17 208.613 1204.41 207.917C1202.51 206.549 1200.19 205.895 1197.86 206.069C1195.95 206.06 1194.05 206.36 1192.24 206.956C1190.59 207.481 1189.05 208.295 1187.68 209.359L1186.26 207.511C1187.85 206.284 1189.65 205.363 1191.58 204.794C1193.68 204.14 1195.88 203.81 1198.08 203.815C1201.1 203.624 1204.09 204.508 1206.52 206.31ZM1202.85 226.747C1204.56 225.749 1205.91 224.228 1206.71 222.405V217.508H1196.63C1194.44 217.333 1192.24 217.822 1190.33 218.912C1189.7 219.335 1189.2 219.909 1188.86 220.581C1188.52 221.253 1188.35 222.002 1188.38 222.756C1188.36 223.555 1188.55 224.344 1188.92 225.047C1189.3 225.75 1189.85 226.343 1190.53 226.766C1192.35 227.853 1194.46 228.368 1196.58 228.244C1198.74 228.298 1200.87 227.782 1202.77 226.747H1202.85Z" fill="#222222" />
		<path d="M1225.72 204.037H1228.55V215.993H1248.61V204.111H1251.44V230.166H1248.61V218.192H1228.55V230.166H1225.72V204.037Z" fill="#222222" />
		<path d="M1268.37 204.037H1271.2V226.212L1292.25 204.037H1294.75V230.092H1291.92V207.917L1270.85 230.092H1268.37V204.037Z" fill="#222222" />
		<path d="M1336.99 217.656H1311.56C1311.62 219.604 1312.26 221.489 1313.4 223.07C1314.51 224.69 1316.05 225.969 1317.85 226.766C1321.55 228.352 1325.71 228.484 1329.5 227.136C1331.07 226.577 1332.47 225.645 1333.6 224.419L1335.26 226.064C1333.9 227.477 1332.24 228.552 1330.4 229.205C1325.78 230.866 1320.7 230.654 1316.23 228.614C1314.03 227.574 1312.17 225.951 1310.82 223.92C1309.5 221.889 1308.82 219.508 1308.86 217.083C1308.82 214.704 1309.45 212.363 1310.67 210.326C1311.9 208.288 1313.66 206.634 1315.77 205.552C1318.02 204.45 1320.5 203.878 1323 203.878C1325.51 203.878 1327.98 204.45 1330.24 205.552C1332.31 206.624 1334.05 208.24 1335.28 210.227C1336.52 212.267 1337.15 214.619 1337.11 217.009L1336.99 217.656ZM1317.35 207.252C1315.73 208.021 1314.35 209.207 1313.34 210.689C1312.35 212.189 1311.75 213.919 1311.61 215.716H1334.26C1334.18 213.926 1333.59 212.197 1332.57 210.726C1331.55 209.247 1330.16 208.058 1328.55 207.271C1326.8 206.422 1324.88 205.998 1322.94 206.032C1321.01 206.001 1319.09 206.418 1317.35 207.252Z" fill="#222222" />
	</g>
	<path d="M1381.46 36.35C1381.46 26.45 1384.96 18.002 1391.96 11.006C1398.95 4.01 1407.4 0.512001 1417.3 0.512001C1427.2 0.512001 1435.65 4.01 1442.65 11.006C1449.64 18.002 1453.14 26.45 1453.14 36.35C1453.14 46.25 1449.64 54.698 1442.65 61.694C1435.65 68.69 1427.2 72.188 1417.3 72.188C1407.4 72.188 1398.95 68.69 1391.96 61.694C1384.96 54.698 1381.46 46.25 1381.46 36.35ZM1417.3 69.02C1426.34 69.02 1433.97 65.852 1440.17 59.516C1446.51 53.048 1449.68 45.326 1449.68 36.35C1449.68 27.308 1446.51 19.619 1440.17 13.283C1433.97 6.881 1426.34 3.68 1417.3 3.68C1408.39 3.68 1400.77 6.881 1394.43 13.283C1388.1 19.619 1384.93 27.308 1384.93 36.35C1384.93 45.326 1388.1 53.015 1394.43 59.417C1400.77 65.819 1408.39 69.02 1417.3 69.02ZM1432.35 30.014C1432.35 34.964 1430.4 38.594 1426.51 40.904L1434.03 54.665H1424.13L1418.29 43.082H1413.84V54.665H1404.73V18.035H1418.29C1422.38 18.035 1425.75 19.19 1428.39 21.5C1431.03 23.744 1432.35 26.582 1432.35 30.014ZM1417.8 26.45H1413.84V35.162H1417.8C1419.51 35.162 1420.83 34.766 1421.76 33.974C1422.75 33.182 1423.24 32.126 1423.24 30.806C1423.24 27.902 1421.43 26.45 1417.8 26.45Z" fill="#222222" />
	<defs>
		<clipPath id="clip0_1961_37756">
			<rect width="1340" height="228.18" fill="white" transform="translate(0 11.595)" />
		</clipPath>
	</defs>
</svg>
