<svg width="88" height="74" viewBox="0 0 88 74" fill="none" xmlns="http://www.w3.org/2000/svg">
<path d="M86.3992 0.800781H17.0992C16.6992 0.800781 16.2992 1.00078 15.9992 1.30078L0.599219 17.2008C0.499219 17.3008 0.399219 17.5008 0.299219 17.7008C0.199219 17.9008 0.199219 18.1008 0.199219 18.2008V72.1008C0.199219 72.9008 0.899219 73.6008 1.69922 73.6008H78.6992C79.4992 73.6008 80.1992 72.9008 80.1992 72.1008V66.0008H86.3992C87.1992 66.0008 87.8992 65.3008 87.8992 64.5008V46.4008V46.3008C87.8992 46.2008 87.8992 46.2008 87.8992 46.1008V24.2008V2.30078C87.8992 1.50078 87.1992 0.800781 86.3992 0.800781ZM17.6992 3.80078H84.7992V23.7008L80.0992 29.5008V18.3008C80.0992 17.5008 79.3992 16.8008 78.5992 16.8008H5.19922L17.6992 3.80078ZM77.1992 70.7008H3.19922V19.8008H77.1992V32.2008H59.9992C52.9992 32.2008 47.3992 37.9008 47.3992 44.8008C47.3992 51.8008 53.0992 57.4008 59.9992 57.4008H77.1992V70.7008ZM78.1992 54.4008H59.9992C54.6992 54.4008 50.3992 50.1008 50.3992 44.8008C50.3992 39.5008 54.6992 35.2008 59.9992 35.2008H78.6992C79.1992 35.2008 79.5992 35.0008 79.8992 34.6008L84.8992 28.5008V45.9008L78.1992 54.4008ZM84.8992 63.0008H80.1992V56.8008L84.8992 50.8008V63.0008Z" fill="white"/>
<path d="M26.6992 11.6016H64.6992C65.4992 11.6016 66.1992 10.9016 66.1992 10.1016C66.1992 9.30156 65.4992 8.60156 64.6992 8.60156H26.6992C25.8992 8.60156 25.1992 9.30156 25.1992 10.1016C25.1992 10.9016 25.7992 11.6016 26.6992 11.6016Z" fill="white"/>
</svg>
