<svg width="144" height="144" viewBox="0 0 144 144" fill="none" xmlns="http://www.w3.org/2000/svg">
<rect width="144" height="144" rx="72" fill="#EE7A45"/>
<path d="M104.969 37.9246C103.604 36.7671 101.46 36.6015 99.2436 37.4915H99.24C96.9086 38.427 33.245 65.7342 30.6533 66.8499C30.1819 67.0137 26.0651 68.5498 26.4891 71.9714C26.8677 75.0563 30.1764 76.3339 30.5805 76.4813L46.7657 82.0232C47.8395 85.5977 51.798 98.7854 52.6735 101.603C53.2195 103.359 54.1094 105.667 55.6692 106.142C57.0378 106.67 58.3992 106.187 59.2801 105.496L69.1754 96.3175L85.1495 108.775L85.5299 109.003C86.6146 109.483 87.6539 109.724 88.6458 109.724C89.412 109.724 90.1473 109.58 90.8498 109.292C93.2431 108.31 94.2004 106.029 94.3005 105.771L106.232 43.7505C106.96 40.4381 105.949 38.7527 104.969 37.9246ZM61.04 84.24L55.58 98.8L50.12 80.6L91.98 49.66L61.04 84.24Z" fill="#F5F0E7"/>
</svg>
