<svg width="144" height="144" viewBox="0 0 144 144" fill="none" xmlns="http://www.w3.org/2000/svg">
<circle cx="72.5" cy="71.5" r="57.5" fill="#F5F0E7"/>
<path fill-rule="evenodd" clip-rule="evenodd" d="M143.145 71.5726C143.145 111.101 111.101 143.145 71.5726 143.145C32.0442 143.145 0 111.101 0 71.5726C0 32.0442 32.0442 0 71.5726 0C111.101 0 143.145 32.0442 143.145 71.5726ZM74.4867 102.964H68.8691C68.8691 102.964 56.4742 103.71 45.5593 92.346C33.6556 79.9511 23.1426 55.3553 23.1426 55.3553C23.1426 55.3553 22.5366 53.7426 23.1949 52.9631C23.9349 52.0866 25.9508 52.0304 25.9508 52.0304L39.3791 51.9424C39.3791 51.9424 40.6447 52.1542 41.5506 52.8189C42.297 53.3675 42.7154 54.3933 42.7154 54.3933C42.7154 54.3933 44.8857 59.882 47.7602 64.8476C53.3701 74.5415 55.983 76.662 57.8879 75.6234C60.6628 74.109 59.831 61.9195 59.831 61.9195C59.831 61.9195 59.882 57.4949 58.4339 55.525C57.3124 53.9978 55.1971 53.5525 54.2632 53.4275C53.5079 53.3267 54.748 51.5724 56.3556 50.7852C58.772 49.6012 63.0397 49.5336 68.0819 49.5859C72.0102 49.6255 73.1406 49.8704 74.6768 50.2417C78.2406 51.1022 78.1295 53.8596 77.8897 59.8089C77.8181 61.5867 77.735 63.6494 77.735 66.0316C77.735 66.5676 77.7194 67.1389 77.7033 67.7266C77.62 70.7736 77.5247 74.2621 79.5301 75.5584C80.5584 76.2218 83.0744 75.6579 89.3669 64.9726C92.3498 59.9088 94.5864 53.9544 94.5864 53.9544C94.5864 53.9544 95.075 52.8929 95.8342 52.4374C96.6112 51.973 97.6586 52.1159 97.6586 52.1159L111.79 52.0279C111.79 52.0279 116.036 51.5214 116.724 53.4377C117.445 55.4497 115.137 60.1474 109.363 67.842C103.881 75.1495 101.216 77.8354 101.467 80.2144C101.65 81.9487 103.381 83.5198 106.699 86.5996C113.655 93.0562 115.509 96.4464 115.95 97.252C115.985 97.3172 116.012 97.3655 116.031 97.3971C119.144 102.559 112.578 102.964 112.578 102.964L100.028 103.138C100.028 103.138 97.3307 103.673 93.7813 101.235C91.9251 99.9609 90.1104 97.8804 88.3813 95.8982C85.7382 92.8679 83.2952 90.0672 81.2104 90.7282C77.712 91.8382 77.8217 99.3759 77.8217 99.3759C77.8217 99.3759 77.8472 100.986 77.0498 101.843C76.1835 102.777 74.4867 102.964 74.4867 102.964Z" fill="#EE7A45"/>
</svg>
